{
	"asset":{
		"generator":"Khronos glTF Blender I/O v3.5.30",
		"version":"2.0"
	},
	"scene":0,
	"scenes":[
		{
			"name":"Scene",
			"nodes":[
				0
			]
		}
	],
	"nodes":[
		{
			"mesh":0,
			"name":"Cube"
		}
	],
	"animations":[
		{
			"channels":[
				{
					"sampler":0,
					"target":{
						"node":0,
						"path":"translation"
					}
				},
				{
					"sampler":1,
					"target":{
						"node":0,
						"path":"rotation"
					}
				},
				{
					"sampler":2,
					"target":{
						"node":0,
						"path":"scale"
					}
				}
			],
			"name":"Cube",
			"samplers":[
				{
					"input":4,
					"interpolation":"LINEAR",
					"output":5
				},
				{
					"input":4,
					"interpolation":"LINEAR",
					"output":6
				},
				{
					"input":4,
					"interpolation":"LINEAR",
					"output":7
				}
			]
		}
	],
	"meshes":[
		{
			"name":"Cylinder.003",
			"primitives":[
				{
					"attributes":{
						"POSITION":0,
						"TEXCOORD_0":1,
						"NORMAL":2
					},
					"indices":3
				}
			]
		}
	],
	"accessors":[
		{
			"bufferView":0,
			"componentType":5126,
			"count":1989,
			"max":[
				4.177018642425537,
				3.116314172744751,
				0.9473560452461243
			],
			"min":[
				-1.6328282356262207,
				-0.9802529215812683,
				-1.1252901554107666
			],
			"type":"VEC3"
		},
		{
			"bufferView":1,
			"componentType":5126,
			"count":1989,
			"type":"VEC2"
		},
		{
			"bufferView":2,
			"componentType":5126,
			"count":1989,
			"type":"VEC3"
		},
		{
			"bufferView":3,
			"componentType":5123,
			"count":6294,
			"type":"SCALAR"
		},
		{
			"bufferView":4,
			"componentType":5126,
			"count":240,
			"max":[
				10
			],
			"min":[
				0.041666666666666664
			],
			"type":"SCALAR"
		},
		{
			"bufferView":5,
			"componentType":5126,
			"count":240,
			"type":"VEC3"
		},
		{
			"bufferView":6,
			"componentType":5126,
			"count":240,
			"type":"VEC4"
		},
		{
			"bufferView":7,
			"componentType":5126,
			"count":240,
			"type":"VEC3"
		}
	],
	"bufferViews":[
		{
			"buffer":0,
			"byteLength":23868,
			"byteOffset":0,
			"target":34962
		},
		{
			"buffer":0,
			"byteLength":15912,
			"byteOffset":23868,
			"target":34962
		},
		{
			"buffer":0,
			"byteLength":23868,
			"byteOffset":39780,
			"target":34962
		},
		{
			"buffer":0,
			"byteLength":12588,
			"byteOffset":63648,
			"target":34963
		},
		{
			"buffer":0,
			"byteLength":960,
			"byteOffset":76236
		},
		{
			"buffer":0,
			"byteLength":2880,
			"byteOffset":77196
		},
		{
			"buffer":0,
			"byteLength":3840,
			"byteOffset":80076
		},
		{
			"buffer":0,
			"byteLength":2880,
			"byteOffset":83916
		}
	],
	"buffers":[
		{
			"byteLength":86796,
			"uri":"data:application/octet-stream;base64,"
		}
	]
}
