<?xml version="1.0" encoding="utf-8"?>
<!DOCTYPE svg PUBLIC "-//W3C//DTD SVG 1.0//EN" "http://www.w3.org/TR/2001/REC-SVG-20010904/DTD/svg10.dtd">
<svg version="1.0" xmlns="http://www.w3.org/2000/svg" width="1797px" height="706px" viewBox="0 0 1797 706" preserveAspectRatio="xMidYMid meet">
 <g fill="#ffffff">
  <path d="M764.4 704.6 c-2.9 -0.7 -6.8 -2 -8.8 -3 -2 -0.9 -5 -2.3 -6.6 -3 -4.3 -1.8 -17.1 -14.7 -19.7 -19.8 -4.7 -9.4 -6 -13.5 -8.2 -25.6 -0.4 -2.3 -1.1 -4.5 -1.4 -4.8 -0.3 -0.4 -17 -0.8 -36.9 -1 -20.4 -0.2 -37.8 -0.8 -39.8 -1.4 -1.9 -0.5 -6.8 -1 -10.8 -1 -4 0 -8.3 -0.5 -9.5 -1.2 -1.2 -0.6 -5.1 -1.5 -8.7 -1.9 -11 -1.3 -37.2 -6.3 -41.3 -7.8 -1.6 -0.6 -4 -1.1 -5.3 -1.1 -1.4 0 -4.9 -0.7 -7.7 -1.6 -2.9 -0.8 -6.8 -1.9 -8.7 -2.4 -12.6 -3.2 -32.5 -9.1 -42.5 -12.6 -3.8 -1.4 -9.9 -3.4 -13.5 -4.5 -3.6 -1.2 -9.1 -3.2 -12.3 -4.5 -7.1 -2.9 -7.8 -2.9 -14.7 -0.3 -3 1.1 -8.4 2.9 -12 4.1 -3.6 1.1 -7.8 2.6 -9.5 3.4 -1.6 0.7 -7 2.5 -12 3.8 -4.9 1.4 -13.7 4.1 -19.4 6.1 -5.7 1.9 -11.1 3.5 -12.1 3.5 -0.9 0 -5.2 0.9 -9.6 2.1 -4.3 1.2 -9.5 2.4 -11.4 2.8 -1.9 0.4 -5.1 1.3 -7 1.9 -1.9 0.6 -9.1 2.1 -16 3.2 -6.9 1.1 -13.9 2.5 -15.6 3 -1.7 0.6 -5.3 1 -8.2 1 -2.8 0 -6.3 0.5 -7.9 1.2 -3.9 1.6 -14.9 2.6 -43.3 3.8 -32.8 1.4 -80.8 -0.7 -89.5 -3.9 -1.6 -0.6 -7.9 -2.3 -14 -3.7 -6 -1.5 -13 -3.5 -15.5 -4.6 -12 -5.1 -34.1 -16.7 -39 -20.4 -7.5 -5.7 -28.1 -26.7 -32.3 -32.9 -3.9 -5.8 -10.9 -20.2 -12.7 -26 -0.7 -2.2 -1.7 -4.9 -2.3 -5.9 -3.8 -7.5 -3.8 -68.2 0.1 -75.3 0.7 -1.2 1.2 -3.2 1.2 -4.5 0 -1.3 0.4 -2.8 0.9 -3.3 0.4 -0.6 2.6 -6.2 4.7 -12.5 2.1 -6.3 4.9 -13.7 6.2 -16.5 6.5 -13.2 9.6 -19.2 11.2 -21.5 0.9 -1.4 2.8 -4.5 4.2 -7 1.3 -2.5 5.4 -9 9 -14.5 5.9 -9 7.9 -11.8 14.7 -20.7 2.8 -3.6 2.6 -5.5 -0.9 -8.5 -1.6 -1.3 -3 -3 -3 -3.7 0 -0.7 -1.3 -2.6 -3 -4.2 -1.6 -1.6 -3 -3.2 -3 -3.7 0 -0.4 -1.3 -2.6 -3 -4.9 -1.6 -2.2 -3 -4.5 -3 -5 0 -0.4 -1.8 -3.5 -4 -6.7 -2.2 -3.2 -4 -6.3 -4 -6.8 0 -0.5 -1.2 -2.5 -2.6 -4.4 -2.1 -2.8 -11.1 -20.6 -14.3 -28.4 -0.5 -1.1 -2 -4.7 -3.4 -8 -6 -14.2 -8.2 -22.6 -9.6 -37.5 -1 -10.2 -2.5 -16 -4.3 -17.1 -2.1 -1.4 -13.1 -4.8 -23.6 -7.3 -9.7 -2.4 -20.3 -6 -25.9 -9 -4 -2 -11.5 -9.9 -15.5 -16.1 -7.4 -11.6 -7.1 -10.5 -7.2 -28.5 -0.1 -16.5 -0.1 -16.5 3.9 -24 2.5 -4.8 6.5 -10.1 11.1 -14.7 8.6 -8.7 14.1 -11.4 32.4 -16.3 24.3 -6.4 37.2 -11.9 45.7 -19.4 9.2 -8.1 18.2 -23.9 22.3 -39.1 3.2 -11.8 6.1 -21.6 7.3 -25 6.3 -17.6 17.9 -28.4 36.7 -34.1 8.6 -2.6 27.9 -1.3 32 2.2 0.8 0.7 4 2.5 7 3.9 3.3 1.6 8 5.4 11.8 9.3 10.7 11 11 11.6 16.3 30.2 5.9 20.9 6.1 21.4 12.1 33.8 2.8 5.6 5.8 10.7 6.9 11.2 1 0.6 13.9 1 30.8 1 16 0 31 0.4 33.3 1 2.4 0.5 12 1.9 21.3 3 9.4 1.1 18.5 2.5 20.2 3.1 1.8 0.6 5.4 1.4 8 1.8 8.9 1.6 24.8 5.2 31.3 7.2 3.6 1.1 7.6 1.9 9.1 1.9 1.4 0 2.9 0.4 3.5 0.9 0.9 0.9 7 2.7 13.9 4.1 2.2 0.4 9.2 2.6 15.5 4.8 6.3 2.1 14.4 4.8 18 6 3.6 1.2 9.6 3.3 13.4 4.7 9.8 3.6 15.1 3.2 26.1 -1.9 5 -2.4 10.5 -4.2 22 -7.6 6.1 -1.7 12.6 -3.8 14.5 -4.5 3.1 -1.1 8.8 -2.7 20 -5.5 1.9 -0.5 6.7 -1.8 10.5 -2.8 9.4 -2.6 20.9 -5.2 23.1 -5.2 1 0 3.1 -0.4 4.8 -0.9 11.1 -3.4 15.9 -4.2 40.6 -7.1 5.2 -0.6 10.9 -1.4 12.5 -1.7 5.3 -1.1 94.8 -1.5 98.5 -0.4 1.9 0.5 8.5 1.7 14.5 2.6 10 1.5 28.3 6.6 36.2 10.1 1.7 0.8 3.4 1.4 3.8 1.4 1.5 0 19.2 9.2 25.7 13.3 7.2 4.6 13.7 10 22.6 18.9 15.8 15.7 22.7 27.1 29.8 48.8 3.4 10.4 3.8 12.8 4.2 25 0.6 18.2 1.8 19.7 7.8 9.8 7.9 -12.9 23.9 -27.3 37.4 -33.6 15.7 -7.3 14.6 -7.2 72.1 -7.2 58.2 0 55.2 -0.3 71.9 8.1 6.4 3.3 10.8 6.5 17.6 13.1 4.9 4.8 9.7 10 10.4 11.5 0.8 1.5 2.7 4.4 4.2 6.4 1.5 2 2.8 4.1 2.8 4.7 0 3.1 3.3 3.2 115.1 3.6 61.8 0.3 113.8 0.5 115.4 0.5 1.7 0.1 16.3 -0.2 32.5 -0.5 29.4 -0.6 29.4 -0.6 36 -6.7 9.6 -9.1 29.5 -18.6 42.4 -20.1 3.5 -0.4 6.1 -1.6 9 -3.9 4.1 -3.3 14.1 -9.7 15.2 -9.7 0.3 0 2 -0.7 3.7 -1.5 1.8 -0.8 6.1 -2.4 9.6 -3.5 5.8 -1.8 9 -2 37.1 -2 34.8 0 35 0 51.5 8.4 7.3 3.7 10.6 6.2 17.6 13.3 8.1 8.3 14.9 17 14.9 19.1 0 0.5 0.9 2.1 2.1 3.6 2 2.6 2 2.6 62.7 2.6 33.4 0.1 62.5 0.5 64.7 0.9 2.2 0.5 6.3 1.4 9.2 2 2.9 0.6 6 1.4 7 1.9 1 0.5 3.6 1.8 5.8 2.8 17.6 8.3 37.4 30 42.2 46.1 1.2 3.7 2.8 9.3 3.7 12.4 2.1 7.3 2.2 25 0.1 30.9 -0.8 2.3 -1.5 5.7 -1.5 7.6 0 1.8 -0.4 4.3 -0.9 5.6 -0.5 1.3 -1.7 5.7 -2.6 9.8 -1 4.1 -2.6 10.2 -3.6 13.5 -2 6.9 -3.1 10.8 -5.9 22 -2.4 9.8 -8.1 26.9 -10.8 32.1 -1.2 2.4 -2.2 7.1 -2.5 12.3 -0.4 4.6 -1.1 9.7 -1.6 11.5 -0.5 1.7 -1.6 5.6 -2.5 8.6 -3.2 11.2 -5.8 18.6 -8.2 23.3 -1.3 2.7 -2.4 5.5 -2.4 6.2 0 0.7 -1.9 3.5 -4.3 6.1 -2.3 2.7 -5.6 6.7 -7.2 8.9 -3.2 4.2 -11.5 12.5 -12.7 12.5 -0.4 0 -2.2 1.3 -4 2.8 -4.7 4.1 -19.4 11.6 -25.8 13.2 -4.6 1.2 -44.2 1.5 -236 1.7 -225.6 0.3 -230.7 0.3 -238.2 -1.6 -4.2 -1.1 -8.6 -2.5 -9.7 -3 -2.6 -1.5 -7.7 -1.4 -10.4 0.1 -7.3 4.1 -8 4.1 -133.7 4.5 -66.3 0.2 -121.1 0.5 -121.7 0.8 -0.9 0.3 -1.3 3.4 -1.3 10.5 0 9.1 -0.3 10.7 -3 16.8 -5.2 11.3 -21.6 25.7 -32.5 28.5 -8 2 -22.4 5.9 -24.5 6.7 -1.4 0.5 -5.8 1.8 -9.7 3 -9.2 2.7 -24 12.4 -29.3 19.1 -8.1 10.3 -13.3 22.8 -19.5 46.9 -5 19.5 -7.2 23.6 -17.9 34 -12.6 12.2 -31.3 17.6 -47.2 13.6z m20.6 -16.6 c0 -0.5 0.9 -1 2 -1 3.4 0 9.7 -3.9 14.8 -9.4 6 -6.3 7.9 -9.8 9.7 -17.9 2.3 -9.9 3.7 -15.1 4.6 -16.9 0.5 -1 0.9 -2.5 0.9 -3.3 0 -2.9 4.3 -15 6.7 -18.7 1.2 -2.1 2.3 -4.5 2.3 -5.4 0 -0.9 0.9 -2.7 2 -4.1 1.1 -1.4 2 -3.1 2 -3.8 0 -0.6 1.1 -2.2 2.5 -3.5 1.4 -1.3 2.5 -2.7 2.5 -3.1 0 -1.3 9.2 -10.9 10.5 -10.9 0.6 0 2.2 -1.1 3.5 -2.5 1.3 -1.4 2.9 -2.5 3.6 -2.5 0.7 0 1.9 -0.6 2.6 -1.4 0.8 -0.7 2.4 -1.7 3.6 -2 1.2 -0.4 2.2 -1.2 2.2 -1.7 0 -0.5 0.6 -0.9 1.3 -0.9 0.6 0 2.3 -0.6 3.7 -1.3 1.4 -0.7 5.9 -2.3 10 -3.6 4.1 -1.3 8.5 -2.7 9.8 -3.2 1.3 -0.5 3.3 -0.9 4.5 -0.9 1.2 0 3.5 -0.7 5.1 -1.5 1.5 -0.8 3.9 -1.5 5.2 -1.5 1.3 0 3.8 -0.6 5.6 -1.4 1.8 -0.8 4.7 -1.9 6.4 -2.6 4.4 -1.6 15.1 -12.5 17.5 -17.8 1.8 -4 2 -6 1.7 -17.1 -0.3 -10.3 -0.7 -13.1 -2.2 -15.4 -1.6 -2.4 -1.7 -3 -0.5 -3.8 1.1 -0.7 49.8 -1.6 59.4 -1.2 1.7 0.1 86.3 0.1 99.5 0 2.5 0 25.7 0 51.5 0.2 51.1 0.2 54.1 -0.1 64.3 -5.5 5.6 -3 7.8 -3 13.3 0 10.2 5.6 10.5 5.7 93.8 5.5 42.1 0 77.7 -0.1 79.1 -0.1 1.4 0 23.9 0 50 0 26.1 0 48.4 0 49.5 0 1.1 0 46.2 0.1 100.1 0.1 86 0.1 99 -0.1 104.9 -1.4 7.2 -1.7 16.3 -6.2 20.6 -10.1 1.4 -1.3 3 -2.4 3.5 -2.4 2.6 0 16.7 -17.3 20.6 -25.1 4.6 -9.4 8.8 -22.1 8.8 -26.8 0 -1.4 0.7 -3.5 1.5 -4.5 1 -1.4 1.5 -4.5 1.5 -10.1 0 -6.6 0.4 -9 2.3 -12.6 1.3 -2.4 3.4 -7.8 4.7 -11.9 1.3 -4.1 2.7 -8 3.3 -8.7 1.1 -1.5 2.4 -6.3 4.2 -15.8 1.7 -8.8 3.4 -15.1 5.1 -19.2 0.8 -1.7 1.4 -3.8 1.4 -4.6 0 -0.9 0.4 -1.8 0.9 -2.1 0.5 -0.3 1.1 -2.3 1.4 -4.3 0.8 -6.9 3.9 -21.8 4.8 -23.5 1.2 -2.4 1.2 -24.5 -0.1 -25.3 -0.5 -0.3 -1 -1.7 -1 -3 0 -3.4 -4.5 -15 -7.2 -18.7 -5.4 -7.2 -15.7 -17.2 -22.2 -21.6 -13 -8.8 -11 -8.6 -90 -9.2 -68.9 -0.5 -68.9 -0.5 -70.4 -5 -2.3 -6.8 -1.8 -5.9 -7.6 -15 -8.1 -12.6 -25.4 -24.6 -38.7 -26.9 -9.4 -1.6 -54.3 -1.4 -59.1 0.2 -2.1 0.7 -4.1 1.6 -4.4 2 -0.4 0.4 -1.4 0.7 -2.3 0.7 -3.5 0.1 -15.4 7.3 -20.3 12.3 -3.6 3.5 -5.7 4.3 -14.8 5.1 -11.3 1.1 -25.5 8.4 -36.2 18.8 -8 7.7 -8 7.7 -40.1 8.2 -17.7 0.3 -34.4 0.5 -37.2 0.5 -25 -0.3 -116 -0.8 -171.7 -0.8 -65.7 -0.1 -68.8 -0.2 -68.8 -1.9 0 -1 -0.7 -2.7 -1.5 -3.8 -0.8 -1 -1.5 -2.7 -1.5 -3.7 0 -3.3 -7 -13.3 -14.5 -20.8 -8.9 -9 -19.9 -15.3 -29.6 -16.8 -8.6 -1.4 -86.4 -1.4 -96.5 0 -4.3 0.6 -9.1 1.7 -10.6 2.5 -1.5 0.8 -3.5 1.4 -4.4 1.4 -0.9 0 -3.1 1.1 -4.8 2.3 -1.7 1.3 -4.3 3 -5.8 3.8 -5.4 2.8 -19.7 18 -22.9 24.3 -1.7 3.4 -3.4 6.8 -3.9 7.6 -0.5 0.8 -1.1 2.3 -1.4 3.3 -0.5 1.5 -2.1 1.7 -16.1 1.7 -15.5 0 -15.5 0 -15.5 -18.2 0 -10.1 -0.5 -20.1 -1.1 -22.3 -0.6 -2.2 -1.3 -5.3 -1.6 -7 -0.5 -3.1 -0.9 -4.4 -3.7 -10.8 -0.9 -2.1 -1.6 -4.2 -1.6 -4.8 0 -2 -5 -11.6 -7 -13.4 -1.1 -1 -2 -2.2 -2 -2.7 0 -0.6 -2 -3.4 -4.5 -6.2 -2.5 -2.9 -4.5 -5.6 -4.5 -5.9 0 -0.6 -7 -7.7 -7.7 -7.7 -0.2 0 -3.8 -2.9 -7.8 -6.4 -4.1 -3.5 -8.4 -6.7 -9.6 -7.1 -1.3 -0.4 -4.4 -2.3 -7.1 -4.1 -2.6 -1.9 -5.2 -3.4 -5.8 -3.4 -0.6 0 -1.8 -0.4 -2.8 -0.9 -3.5 -1.9 -12.1 -5.1 -13.6 -5.1 -0.8 0 -2.9 -0.8 -4.8 -1.7 -6.2 -3.1 -6.8 -3.3 -8.8 -3.3 -1.2 0 -4.2 -0.7 -6.8 -1.5 -6.4 -2 -19.1 -3.4 -41.7 -4.5 -23 -1.1 -69.5 -0.6 -72.1 0.8 -1 0.5 -7.1 1.3 -13.4 1.7 -6.3 0.3 -14.1 1.3 -17.3 2.1 -3.2 0.8 -7.8 1.4 -10.2 1.4 -2.4 0 -4.7 0.5 -5 1 -0.3 0.6 -2.1 1 -3.9 1 -1.8 0 -4.1 0.7 -5.2 1.5 -1 0.8 -3.5 1.4 -5.4 1.5 -3.8 0 -20.4 3.7 -23.2 5.1 -1 0.5 -3.3 0.9 -5.2 0.9 -1.8 0 -3.9 0.6 -4.5 1.4 -0.7 0.8 -2.8 1.6 -4.9 1.9 -4.7 0.6 -15.2 3.4 -17.4 4.7 -1 0.6 -3.3 1 -5.2 1 -1.9 0 -3.9 0.6 -4.3 1.4 -0.4 0.7 -1.9 1.6 -3.3 1.9 -7.6 1.7 -15.1 4.1 -19.6 6.3 -2.8 1.3 -5.8 2.4 -6.7 2.4 -0.9 0 -1.9 0.4 -2.2 1 -0.3 0.5 -1.5 1 -2.6 1 -1.1 0 -3.4 0.7 -5 1.6 -2.8 1.4 -3.5 1.4 -8.2 -0.1 -2.9 -0.9 -6 -2 -6.9 -2.6 -1 -0.5 -2.6 -0.9 -3.7 -0.9 -1 0 -2.4 -0.7 -3.1 -1.5 -0.7 -0.8 -2.1 -1.5 -3.1 -1.5 -2.3 0 -20.5 -5.8 -24.1 -7.6 -1.4 -0.8 -3.5 -1.4 -4.5 -1.4 -1 0 -2.3 -0.4 -2.8 -0.9 -0.6 -0.4 -3.2 -1.3 -6 -2 -10 -2.4 -13.1 -3.3 -16.3 -4.7 -1.8 -0.8 -4.7 -1.4 -6.5 -1.4 -1.8 0 -3.7 -0.4 -4.2 -0.9 -0.6 -0.6 -5.9 -1.9 -12 -3 -6 -1.2 -12.6 -2.6 -14.5 -3.3 -4.1 -1.4 -10.1 -2.6 -18.5 -3.8 -3.3 -0.5 -8 -1.3 -10.5 -1.9 -2.5 -0.5 -9.4 -1.3 -15.5 -1.7 -6 -0.3 -11.6 -1.1 -12.3 -1.7 -0.9 -0.7 -13.1 -1.2 -34.8 -1.3 -33.1 -0.2 -36.4 -0.5 -36.4 -3.6 0 -0.5 -1.1 -1.9 -2.3 -3.1 -3.1 -2.8 -4.1 -4.8 -12.1 -22.2 -3.8 -8.2 -5.3 -12.5 -7.7 -22 -1.2 -4.9 -2.6 -9.4 -3.1 -9.9 -0.4 -0.6 -0.8 -2.2 -0.8 -3.8 0 -1.5 -1 -4.6 -2.1 -6.8 -2.3 -4.5 -11.9 -14.6 -15.3 -16.1 -1.1 -0.6 -3.7 -1.9 -5.6 -2.9 -5.9 -3.2 -22.8 -2.5 -29 1.1 -0.8 0.5 -2.4 1.3 -3.5 1.8 -3.2 1.5 -10.3 9.3 -11.9 13.3 -0.9 2 -2 3.9 -2.6 4.3 -0.5 0.3 -1 2.3 -1 4.4 0 2 -0.4 4.1 -0.9 4.7 -0.5 0.5 -1.9 5.4 -3.1 10.9 -1.3 5.5 -2.9 10.7 -3.7 11.6 -0.7 0.8 -1.3 2.2 -1.3 3 0 0.9 -1.3 4.2 -3 7.4 -1.6 3.2 -3 6.3 -3 6.8 0 0.5 -1.8 3.6 -4 6.8 -2.2 3.2 -4 6.2 -4 6.5 0 1.3 -14 14.4 -15.4 14.4 -0.7 0 -2 0.7 -2.7 1.6 -1.2 1.5 -10.7 6.2 -20.4 10.4 -5.5 2.3 -17.9 6 -20.2 6 -1.2 0 -2.5 0.5 -2.8 1 -0.3 0.6 -2.3 1 -4.4 1 -2.2 0 -4.4 0.6 -5.1 1.5 -0.7 0.8 -2.3 1.5 -3.7 1.5 -1.3 0 -3.6 0.8 -5.1 1.7 -3.5 2.2 -14.2 12.5 -14.2 13.7 0 0.5 -0.8 1.8 -1.7 2.9 -1.4 1.5 -1.9 4.2 -2.2 13.3 -0.5 16.6 -0.3 17.3 9.4 29.1 2.6 3.2 9.8 7.3 12.7 7.3 0.9 0 1.8 0.5 2 1.1 0.2 0.6 2.4 1.5 4.8 2 2.5 0.4 7 1.3 10.1 1.8 3.1 0.6 7.2 1.8 9.2 2.6 2 0.8 4.6 1.5 5.7 1.5 1.1 0 2 0.4 2 0.9 0 0.5 1.3 1.2 3 1.6 1.6 0.4 5.7 2 9 3.6 6 2.9 6 2.9 6 9 0 3.3 0.5 6.9 1 7.9 0.6 1.1 1.5 6.6 2 12.2 1.2 12.5 2.9 20.8 4.7 22.9 0.7 0.8 1.3 2.3 1.3 3.2 0 0.8 1.3 4.5 3 8 1.6 3.6 3 7.2 3 8.1 0 0.9 1.7 4.4 3.8 7.8 2.1 3.5 4.4 7.9 5 9.8 0.7 1.9 2.1 4.3 3.1 5.5 1.1 1.1 2.9 3.8 4.1 6 1.2 2.2 3 5.4 4.1 7 1 1.7 2.4 4.1 2.9 5.5 0.6 1.3 1.4 2.7 1.8 3 0.4 0.3 2 2.3 3.5 4.5 5.3 7.7 7.7 10.8 11.7 15.1 2.2 2.4 4 4.8 4 5.4 0 0.6 1.2 2.2 2.6 3.5 2.5 2.3 2.5 2.4 0.8 5.7 -0.9 1.8 -3.6 5.4 -6 8 -2.4 2.6 -4.4 5.1 -4.4 5.6 0 0.4 -1.6 2.6 -3.6 4.8 -1.9 2.1 -4 4.8 -4.5 5.9 -1.9 3.8 -3.6 6.6 -5.6 8.8 -2.2 2.4 -9.3 14 -9.3 15.1 0 0.4 -1.1 2.2 -2.4 3.9 -1.3 1.8 -3.3 5.2 -4.5 7.7 -1.2 2.5 -2.5 5.2 -2.9 6 -3 5.4 -5 10.1 -6.1 14 -0.7 2.5 -1.9 5.8 -2.7 7.3 -0.8 1.6 -1.4 3.6 -1.4 4.6 0 0.9 -0.4 2.1 -1 2.7 -1.7 1.7 -4.7 15.4 -5.3 24 -0.4 4.4 -1.1 9.3 -1.7 10.8 -1.3 3.4 -1.3 20.6 0 24 0.5 1.4 1.2 5.6 1.5 9.3 0.8 8 2.9 16.1 5.9 22.1 8.1 16.4 9.1 17.9 23 31.8 8.5 8.5 19.7 17.1 25.6 19.7 0.8 0.4 2.2 1.1 3 1.6 3.1 1.8 18.7 8.9 23 10.4 2.5 0.9 6.8 2 9.5 2.6 12 2.4 15 3.2 15.9 4.1 0.6 0.6 4.4 1 8.6 1 5 0.1 8.1 0.6 9.4 1.5 2.9 2.2 85.1 2.2 88 0 1.4 -1 4.4 -1.5 9.6 -1.5 4.2 0 8.1 -0.5 8.7 -1.1 0.6 -0.6 4.4 -1.3 8.4 -1.6 4.1 -0.3 8.1 -0.9 8.9 -1.3 0.8 -0.4 5.1 -1.1 9.5 -1.5 4.3 -0.4 9.4 -1.4 11.2 -2.1 1.8 -0.8 4.8 -1.4 6.7 -1.4 1.9 0 3.8 -0.4 4.1 -1 0.3 -0.5 1.9 -1 3.5 -1 1.6 0 4.4 -0.6 6.2 -1.4 1.8 -0.8 8 -2.4 13.8 -3.6 11.2 -2.3 15.7 -3.5 20.5 -5.6 1.7 -0.7 6.4 -2.2 10.5 -3.4 12.3 -3.5 14.4 -4.2 16 -5.5 0.8 -0.7 3.1 -1.5 5 -1.8 3.8 -0.6 12.4 -3.3 15.2 -4.8 1 -0.5 2.6 -0.9 3.5 -0.9 1 0 2.7 -0.7 3.7 -1.5 2.6 -1.9 8 -1.9 9.6 0 0.7 0.8 2 1.5 2.9 1.5 1.5 0 10.7 3.3 14.3 5.1 1 0.5 2.8 0.9 4 0.9 1.3 0 3.2 0.7 4.2 1.5 1.1 0.8 2.9 1.5 4.1 1.5 1.2 0 2.5 0.4 3.1 0.9 1.2 1.1 13.8 5.1 16.2 5.1 1 0 2.7 0.7 3.8 1.5 1 0.8 3.3 1.5 5.1 1.5 1.7 0 3.5 0.5 3.8 1 0.3 0.6 1.6 1 2.9 1 1.3 0 4.9 0.9 8.1 2 3.2 1.1 7.1 2 8.6 2 1.5 0 3 0.4 3.4 0.9 0.3 0.6 2.7 1.3 5.3 1.6 2.6 0.3 5.5 1 6.4 1.6 1 0.5 3.3 0.9 5.3 0.9 1.9 0 5.2 0.7 7.2 1.5 2.1 0.8 7.9 1.9 12.8 2.5 19.5 2.4 21.7 2.8 22.8 3.9 0.6 0.6 4.6 1.1 9.3 1.1 5 0 9.5 0.6 11.7 1.5 3 1.3 10.5 1.5 45.2 1.5 41.5 0 41.5 0 41.5 2.4 0 1.3 0.7 2.9 1.5 3.6 0.8 0.7 1.5 1.9 1.5 2.7 0 0.9 0.7 3.6 1.5 6.2 0.8 2.5 2.3 8.5 3.4 13.3 1.4 6.7 2.8 9.9 5.7 13.9 4.3 5.9 14.5 13.9 17.8 13.9 1.1 0 2.8 0.5 3.6 1 2 1.3 18 1.3 18 0z"/>
  <path d="M771.3 666.6 c-4.1 -1.5 -9.3 -6.4 -9.3 -8.7 0 -1 -0.4 -2.8 -0.9 -4.1 -0.5 -1.3 -1.4 -5 -2.1 -8.3 -0.6 -3.3 -1.6 -6.8 -2.1 -7.7 -0.5 -1 -0.9 -2.6 -0.9 -3.6 0 -1 -0.7 -2.7 -1.5 -3.8 -0.8 -1 -1.5 -3.1 -1.5 -4.6 0 -1.5 -0.4 -2.9 -0.9 -3.2 -0.4 -0.3 -1.9 -3.7 -3.1 -7.6 -1.2 -3.9 -2.8 -7.4 -3.4 -7.7 -1.9 -1.2 -16 -0.2 -19 1.3 -4.3 2.1 -69.2 2 -75.1 -0.1 -2.2 -0.8 -7.4 -1.4 -11.5 -1.5 -4.2 0 -8 -0.4 -8.5 -0.9 -0.9 -0.9 -6.4 -1.9 -23 -4.1 -7.7 -1 -22.4 -4 -25 -5 -1.1 -0.5 -3.6 -1.1 -5.5 -1.3 -1.9 -0.3 -4.8 -0.9 -6.5 -1.5 -5.2 -1.8 -16.2 -4.2 -19.3 -4.2 -1.6 0 -3.5 -0.7 -4.2 -1.5 -0.7 -0.8 -2.7 -1.5 -4.5 -1.5 -1.8 0 -3.8 -0.7 -4.5 -1.5 -0.7 -0.8 -2.1 -1.5 -3.1 -1.5 -2.1 0 -14.4 -3.7 -17.1 -5.1 -1 -0.5 -2.6 -0.9 -3.7 -0.9 -1 0 -2.4 -0.7 -3.1 -1.5 -0.7 -0.8 -2.5 -1.5 -4.1 -1.5 -1.5 0 -3 -0.4 -3.3 -0.9 -0.3 -0.5 -1.8 -1.1 -3.3 -1.4 -4.2 -0.8 -13.3 -4.3 -14.6 -5.6 -0.6 -0.6 -1.9 -1.1 -2.8 -1.1 -0.9 0 -2.9 -0.6 -4.5 -1.4 -3.5 -1.9 -9.7 -0.9 -15.4 2.5 -2 1.2 -2.4 1.4 -10.8 3.9 -4 1.3 -7.5 2.7 -7.8 3.1 -0.3 0.5 -2 0.9 -3.8 0.9 -1.9 0 -3.9 0.7 -4.6 1.5 -0.7 0.8 -2.3 1.5 -3.6 1.5 -1.2 0 -2.5 0.4 -2.8 0.9 -0.3 0.4 -2 1.1 -3.8 1.5 -5.5 1 -14.2 3.7 -17 5.2 -1.4 0.8 -3.7 1.4 -5 1.4 -1.3 0 -2.8 0.4 -3.3 0.9 -1.2 1 -18.3 5.1 -21.7 5.1 -1.3 0 -3.2 0.7 -4.2 1.5 -1.1 0.8 -3.4 1.5 -5.1 1.5 -1.8 0 -3.5 0.3 -3.9 0.8 -1 0.9 -11.2 3.1 -20.6 4.2 -4.1 0.5 -9.3 1.4 -11.5 1.9 -2.2 0.6 -6.7 1.2 -9.9 1.5 -3.2 0.3 -6.4 1 -6.9 1.5 -0.6 0.6 -4.3 1.1 -8.3 1.1 -4.1 0 -8.7 0.6 -10.7 1.5 -5.3 2.2 -67.9 2.2 -75.1 0 -2.7 -0.8 -7.7 -1.5 -11.2 -1.5 -3.8 0 -6.4 -0.4 -6.6 -1.2 -0.2 -0.6 -2.6 -1.5 -5.4 -1.9 -7.3 -1.1 -14 -2.7 -18.8 -4.3 -4.7 -1.6 -21.3 -9.1 -23.6 -10.6 -0.8 -0.6 -2.3 -1.3 -3.2 -1.6 -1 -0.4 -1.8 -1 -1.8 -1.5 0 -0.5 -1.7 -1.7 -3.8 -2.8 -5.2 -2.7 -20.9 -18.8 -24.5 -25.3 -1.6 -2.9 -3.7 -6.4 -4.6 -7.8 -1.9 -3 -5 -14.3 -5 -18.6 -0.1 -1.7 -0.8 -6.3 -1.7 -10.2 -1.5 -6.5 -1.5 -7.8 0 -15 0.9 -4.3 1.6 -10 1.6 -12.6 0 -4.3 1.4 -10.2 4.1 -18.1 0.6 -1.6 1.3 -4.1 1.7 -5.5 0.3 -1.4 0.8 -2.7 1.2 -3 0.4 -0.3 1.7 -3.3 2.9 -6.8 1.1 -3.4 2.5 -7 3 -8 0.5 -0.9 1.9 -3.7 3.2 -6.2 5.7 -11.4 8.4 -16.6 9.1 -17.5 2 -2.3 9.8 -14.9 9.8 -15.7 0 -0.5 0.7 -1.1 1.5 -1.4 0.8 -0.4 1.5 -1 1.5 -1.6 0 -1.1 9.1 -13.3 19.5 -26 10 -12.3 10.5 -13 10.5 -14.8 0 -0.8 -3 -4.6 -6.6 -8.5 -3.6 -3.8 -7.6 -8.7 -8.9 -10.7 -1.4 -2 -3.7 -5 -5.2 -6.6 -1.6 -1.6 -3.2 -3.6 -3.8 -4.5 -4.2 -6.6 -8.7 -12.7 -9.4 -12.7 -0.4 0 -1.3 -1.6 -2 -3.5 -0.7 -1.9 -2.2 -4.7 -3.4 -6.3 -2.4 -2.9 -3 -3.9 -8 -13.4 -1.9 -3.5 -4.4 -7.9 -5.6 -9.8 -1.2 -1.9 -2.6 -5.4 -3.2 -7.8 -0.7 -2.3 -1.5 -4.5 -2 -4.8 -0.5 -0.3 -0.9 -1.6 -0.9 -2.8 0 -1.3 -0.7 -2.9 -1.5 -3.6 -0.8 -0.7 -1.5 -2 -1.5 -2.9 0 -0.9 -0.5 -2.2 -1 -2.7 -1.4 -1.4 -5 -18.6 -5 -23.8 0 -2.1 -0.7 -6.6 -1.6 -9.9 -1.5 -5.7 -1.5 -10.7 0.1 -18.2 0.5 -2.8 0.2 -3.3 -5.4 -6.7 -3.2 -2.1 -6.4 -3.8 -6.9 -3.8 -0.6 0 -1.2 -0.4 -1.4 -0.8 -0.4 -1.1 -14.5 -7.2 -16.5 -7.2 -0.9 0 -2.4 -0.6 -3.2 -1.3 -2.6 -2.1 -22.6 -7.7 -27.5 -7.7 -1.2 0 -3.1 -0.7 -4.2 -1.5 -1 -0.8 -2.7 -1.5 -3.6 -1.5 -1 0 -2.9 -1.7 -4.3 -3.7 -2.7 -4.1 -3.3 -10 -1.4 -15 1.3 -3.5 5.7 -7.2 8.5 -7.3 1.2 0 2.4 -0.7 2.8 -1.5 0.3 -0.9 1.9 -1.5 4.1 -1.5 1.9 0 4.3 -0.4 5.3 -0.9 0.9 -0.5 5.8 -1.9 10.7 -3.1 5 -1.2 10 -2.8 11.2 -3.6 1.2 -0.8 2.8 -1.4 3.5 -1.4 2.3 0 18 -8 24.8 -12.6 11 -7.4 27.1 -25 30.5 -33.4 0.4 -0.8 1.1 -2.2 1.6 -3 0.5 -0.8 1.4 -2.6 1.9 -4 0.6 -1.4 2.2 -4.7 3.5 -7.3 1.4 -2.7 2.5 -5.7 2.5 -6.7 0 -1 0.6 -2.3 1.4 -2.9 0.8 -0.6 1.6 -2.4 1.9 -3.9 2.2 -11.2 3.7 -17.4 4.6 -19.1 0.6 -1.1 1.1 -3.2 1.1 -4.6 0 -7.4 11 -14.1 18.5 -11.4 4.5 1.7 10.5 8.1 10.5 11.3 0 1.3 0.7 3.7 1.5 5.2 0.8 1.6 1.5 3.7 1.5 4.6 0 2.9 3 14.2 4.5 17 0.8 1.4 1.5 3.3 1.5 4.2 0 0.8 1.1 3.5 2.4 6.1 1.4 2.5 3 6.2 3.6 8.3 1.5 4.5 4.9 10.4 6.7 11.5 0.7 0.4 1.3 1.4 1.3 2.1 0 2.2 11.8 16.1 16.2 19 4.3 2.9 4.3 2.9 18.8 2.3 16.4 -0.5 48.6 0.5 63.5 2.2 21.3 2.3 32.8 4.1 33.9 5.2 0.6 0.5 2.7 0.9 4.9 0.9 2.1 0 4.8 0.5 6 1.2 2.2 1.2 3.6 1.5 17.7 3.8 4.1 0.7 8.7 1.8 10.2 2.6 1.5 0.8 4.2 1.4 6.1 1.4 1.9 0 4 0.6 4.6 1.4 0.6 0.8 2.6 1.6 4.4 1.9 6.9 1.1 17.2 3.8 18.1 4.7 0.6 0.6 2.3 1 3.8 1 1.5 0 2.8 0.4 2.8 1 0 0.5 1.2 1.2 2.8 1.6 7 1.6 19.8 5.7 24.9 8 1.7 0.8 3.8 1.4 4.6 1.4 0.9 0 1.9 0.4 2.2 1 0.3 0.5 1.4 1 2.4 1 1 0 4 0.9 6.6 2.1 6.2 2.8 13.8 2.8 19.2 0 2.3 -1.1 4.9 -2.1 5.8 -2.1 0.8 0 2.3 -0.4 3.3 -0.9 5.8 -2.8 9.5 -4.3 15.7 -6.2 3.9 -1.1 7.9 -2.4 9 -2.9 4.8 -1.7 9.2 -3.2 12 -4 1.7 -0.5 4.4 -1.3 6 -1.8 9.2 -3 13.5 -4.2 15.6 -4.2 1.3 0 3.3 -0.7 4.3 -1.5 1.1 -0.8 3.4 -1.5 5.1 -1.5 1.7 0 3.5 -0.4 4.1 -0.9 0.8 -0.8 10.7 -3.1 22.4 -5.2 5.2 -0.9 14.8 -3.3 17 -4.1 0.8 -0.4 4.2 -0.9 7.4 -1.2 3.3 -0.4 6.5 -1.1 7.1 -1.6 0.7 -0.6 1.4 -0.7 1.7 -0.5 0.3 0.3 6.8 -0.2 14.4 -1.1 20.1 -2.3 54.6 -3.4 75.2 -2.4 22.5 1.2 45.5 4.4 48.6 6.9 0.6 0.5 2.7 1.2 4.6 1.6 1.9 0.4 4.1 1.1 5 1.5 2.3 1.1 8.1 3.1 12 4 1.9 0.5 3.6 1.4 3.8 1.9 0.2 0.6 0.8 1.1 1.3 1.1 0.5 0 2.8 1.3 5.1 3 2.2 1.6 4.6 3 5.3 3 0.7 0 2.8 1.5 4.7 3.3 6 5.5 10.1 8.7 11.5 8.7 0.7 0 1.3 0.6 1.3 1.3 0 1.4 4.2 6.9 7.3 9.6 0.9 0.9 1.7 1.9 1.7 2.3 0 0.4 1.1 2.3 2.3 4.2 1.3 1.9 3.4 6.3 4.6 9.8 1.3 3.4 2.7 7.2 3.1 8.3 3.9 9.8 5.1 30.1 2.5 41 -0.8 3.3 -1.5 7.5 -1.5 9.3 0 1.8 -0.4 4 -0.9 5 -2.5 5 -4 9.3 -3.6 10.4 0.4 1 8.3 1.2 37.3 1 20.2 -0.1 37.2 -0.4 37.8 -0.6 0.5 -0.2 1.6 -2.3 2.3 -4.7 3.3 -11 8.8 -22 13.4 -26.7 5.4 -5.7 13.8 -11.1 20.7 -13.6 5.1 -1.9 8.6 -2.1 46.5 -2.4 46.5 -0.4 49.1 -0.1 60.4 6.3 3.2 1.8 11.1 9.6 12.2 12 0.5 1.1 1.3 2.7 1.8 3.5 1.9 3.3 4.1 9.2 4.1 11.1 0 1.1 0.5 3 1.2 4.2 0.6 1.2 1.2 4.7 1.2 7.7 0.1 6.1 -0.4 5.9 8.5 4.1 3.5 -0.7 28.1 -1.1 72.5 -1.1 56.2 0 68.1 0.2 72.9 1.5 5 1.3 6.4 1.3 12 0 9.4 -2.2 76.4 -2.2 85.1 0.1 6.2 1.6 11.7 1.5 20.6 -0.5 2.5 -0.6 18.9 -1 36.5 -1.1 17.6 0 32.5 -0.4 33.1 -0.8 0.6 -0.4 1.8 -2 2.7 -3.7 2.6 -5 11.8 -13 19.9 -17.4 7.2 -3.8 8.5 -4.1 18 -4.8 10.3 -0.6 10.3 -0.6 15.3 -5.5 2.8 -2.8 6.9 -6.1 9.3 -7.5 2.3 -1.4 4.2 -2.9 4.2 -3.4 0 -0.5 1 -0.9 2.3 -0.9 1.3 0 2.7 -0.4 3.3 -0.9 3.2 -2.9 38.4 -4.4 50.5 -2.1 7.9 1.5 14.7 4.7 19.8 9.4 4.5 4.2 11.1 13.1 11.1 15.1 0 0.9 0.7 2.9 1.5 4.4 0.8 1.6 1.7 7 2.1 12.1 0.7 9.2 0.7 9.2 3.3 8.6 12.1 -2.5 18 -2.7 82.5 -2.3 76 0.3 72.5 0 83.6 7.5 6.6 4.5 14.2 14.2 16.3 20.9 0.8 2.6 2 6.6 2.7 8.9 1.4 4.8 1 9.5 -2 22.4 -1.2 5.2 -2.6 11.3 -3.1 13.5 -1.7 8.5 -2.2 10 -3.4 11.5 -0.7 0.8 -1.5 3.1 -1.8 5 -0.6 3.5 -3.8 17.6 -5.6 24 -1.1 4.1 -2.9 9.2 -4.8 13.7 -0.7 1.7 -1.3 3.4 -1.3 3.8 0 1.3 -4 9.4 -5 10 -0.5 0.3 -1 4.6 -1 9.6 0 4.9 -0.4 9.7 -0.9 10.7 -0.5 0.9 -1.9 5.8 -3.1 10.7 -3.9 16.1 -7.3 22.5 -17.4 32.6 -6.8 6.7 -9.7 8.9 -14.8 10.9 -6.6 2.6 -10.7 2.7 -204 2.3 -3.8 0 -26 0 -49.5 0 -23.6 0.1 -45.3 0 -48.3 -0.1 -3 -0.1 -38.3 0.1 -78.5 0.4 -48.2 0.3 -74.6 0.1 -77.8 -0.6 -7.7 -1.6 -12.8 -4.5 -18.9 -10.5 -6.5 -6.3 -6.8 -6.3 -12.8 0 -5.1 5.4 -9.6 8 -17.1 9.9 -9.1 2.2 -84.3 2.4 -92.8 0.1 -4.7 -1.2 -6.1 -1.2 -11.2 0.1 -4.9 1.3 -12.8 1.4 -49.1 1 -23.8 -0.3 -44.9 -0.5 -46.8 -0.5 -150.8 0.9 -152.1 0.9 -151.8 2.6 0.3 1.4 15.7 11.5 19.8 13 7.2 2.6 12.8 4.7 14.2 5.4 1 0.5 2.6 0.9 3.6 0.9 0.9 0 2.6 0.6 3.7 1.4 1.1 0.7 3.4 1.6 5 1.9 6.8 1.3 19.2 4.4 21.6 5.4 1.4 0.6 3.8 2.6 5.2 4.3 2.3 2.6 2.7 4.1 2.7 9.1 0 5 -0.4 6.3 -2.8 9 -3.1 3.5 -8.6 5.9 -14.9 6.6 -2.3 0.3 -4.7 1.1 -5.4 1.9 -0.6 0.8 -2.8 1.4 -4.8 1.4 -2 0 -4.1 0.4 -4.6 0.8 -0.6 0.5 -4.4 1.9 -8.5 3.1 -17 5.2 -34.1 15.5 -45.6 27.3 -9.1 9.3 -19.4 24.3 -19.4 28.2 0 0.9 -1 3.3 -2.3 5.4 -2.6 4.2 -6.7 16.1 -6.7 19.5 0 1.3 -0.4 2.7 -0.9 3.3 -0.6 0.5 -1.2 2.6 -1.4 4.7 -0.3 2.1 -0.9 4.3 -1.6 5 -0.6 0.6 -1.1 2.4 -1.1 3.9 0 6.6 -5.6 15.8 -9.7 15.8 -1.2 0 -2.5 0.5 -2.8 1 -0.8 1.2 -3 1.1 -7.2 -0.4z m6.4 -17.8 c0.6 -0.7 1.3 -3.1 1.7 -5.3 1.5 -8.3 4 -18.5 4.7 -18.5 0.4 0 1.1 -1.5 1.4 -3.2 0.4 -1.8 1.1 -3.7 1.5 -4.3 0.3 -0.5 1.7 -3.9 3 -7.5 3.1 -8.5 10 -21.6 14.8 -27.9 4.6 -6.1 15.6 -17.2 19.2 -19.3 1.9 -1.2 4.6 -3.1 6 -4.4 2.2 -2.1 9.7 -6.3 20.2 -11.6 2.1 -1 7.4 -3 11.8 -4.4 4.4 -1.4 8 -3 8 -3.5 0 -0.5 1.1 -0.9 2.5 -0.9 1.4 0 4.2 -0.7 6.2 -1.5 1.9 -0.8 4.6 -1.5 6 -1.5 3.6 0 9.3 -2.7 9.3 -4.4 0 -0.9 -1.2 -1.8 -2.7 -2.1 -1.6 -0.3 -4.1 -1 -5.8 -1.6 -1.6 -0.6 -4.6 -1.5 -6.5 -1.9 -11.6 -2.9 -16.4 -4.6 -32.1 -11.9 -3.6 -1.7 -7 -3.1 -7.6 -3.1 -0.6 0 -1.3 -0.4 -1.5 -0.8 -0.1 -0.4 -3.2 -2.6 -6.8 -4.7 -3.6 -2.2 -7 -4.4 -7.6 -5 -0.6 -0.5 -3.5 -3.2 -6.4 -5.9 -5.8 -5.5 -15.2 -17.7 -19 -24.8 -2.2 -4.2 -6.8 -7.8 -10.1 -7.8 -2.8 0 -12.3 -8.4 -16.1 -14.1 -3.4 -5.4 -6.5 -5.7 -7.5 -0.8 -0.3 1.6 -1.2 3.4 -1.9 4 -0.8 0.6 -1.4 1.7 -1.4 2.5 0 2.2 -3.1 8.3 -9.5 18.9 -4.4 7.3 -8.7 12.6 -16.3 20.2 -5.7 5.7 -10.8 10.3 -11.3 10.3 -0.5 0 -2.8 1.4 -5.1 3 -2.2 1.7 -4.6 3 -5.1 3 -0.6 0 -1.8 0.7 -2.6 1.4 -0.9 0.8 -5 2.9 -9.1 4.7 -4.1 1.7 -7.7 3.4 -8 3.8 -0.5 0.6 -3.4 1.5 -16.7 5.5 -2.8 0.9 -6 1.6 -7 1.6 -1.1 0 -2.8 0.7 -3.9 1.5 -1 0.8 -3 1.5 -4.4 1.5 -1.4 0 -3.2 0.4 -4 1 -2.4 1.5 1.4 4.7 6.8 5.5 5.4 0.7 13.5 3.2 17.4 5.1 1.4 0.8 3.5 1.4 4.6 1.4 1.2 0 2.3 0.4 2.6 0.9 0.3 0.5 1.8 1.2 3.3 1.5 2.6 0.6 15.2 6.5 16.3 7.6 0.3 0.3 2.3 1.4 4.5 2.5 5.6 2.8 18.3 12.5 22.8 17.4 3 3.3 10.7 13.2 14.5 18.7 2.9 4.2 10.2 19 10.2 20.7 0 0.8 0.7 2 1.5 2.7 0.8 0.7 1.5 2.2 1.5 3.4 0 1.2 0.4 2.6 0.9 3.2 1 1.1 5.1 14.5 5.1 16.7 0 0.8 0.7 2.8 1.5 4.3 0.8 1.6 1.5 4.1 1.5 5.5 0 3.9 2.6 5.4 4.7 2.7z m-413.2 -80 c2.8 -0.6 9 -1.2 13.9 -1.5 4.9 -0.2 9.8 -1 11 -1.8 1.2 -0.7 6 -1.6 10.9 -2 4.8 -0.4 9 -1.1 9.3 -1.6 0.3 -0.5 2.4 -0.9 4.8 -0.9 2.3 0 5.1 -0.7 6.2 -1.5 1 -0.8 3.5 -1.5 5.5 -1.5 2 0 4.2 -0.7 4.9 -1.5 0.7 -0.8 2.9 -1.5 4.9 -1.6 5.4 -0.1 8.5 -1.3 8.9 -3.2 0.2 -1 -0.4 -1.9 -1.5 -2.3 -1 -0.3 -4.5 -1.8 -7.8 -3.4 -15.7 -7.4 -32.1 -15.4 -33.5 -16.1 -0.8 -0.5 -5.1 -2.7 -9.5 -4.9 -4.4 -2.2 -10.2 -5.4 -13 -7 -2.7 -1.6 -5.7 -3.2 -6.5 -3.6 -0.8 -0.3 -1.9 -0.8 -2.5 -1 -0.5 -0.2 -2.3 -1.3 -4 -2.4 -1.6 -1.1 -5.5 -3.3 -8.5 -5 -10.9 -6 -13.6 -7.6 -17.5 -10.3 -2.2 -1.5 -4.4 -2.7 -4.9 -2.7 -0.6 0 -2.3 -1.2 -3.9 -2.7 -2.8 -2.8 -2.8 -2.8 -44 -3.4 -31 -0.5 -42.3 -1 -45.8 -2 -12.8 -3.9 -25.5 -17.7 -27.3 -29.4 -1.3 -8.5 -1.2 -17.7 0.1 -24.5 2.6 -12.8 3.3 -15.4 4.3 -16.4 0.6 -0.6 1 -2.7 1 -4.7 0 -2.8 -0.7 -4.5 -3.1 -6.8 -3.5 -3.5 -4.7 -3.8 -5.6 -1.3 -0.3 0.9 -2 4.9 -3.9 8.7 -1.8 3.9 -3.8 9 -4.5 11.5 -0.6 2.5 -1.8 5.9 -2.5 7.7 -0.8 1.7 -1.4 3.8 -1.4 4.7 0 0.9 -0.4 2.4 -0.9 3.4 -2.4 4.7 -4.3 21.1 -3.9 33.2 0.5 11.3 2.2 21.7 3.9 23 0.4 0.3 1 2.1 1.4 4 0.4 1.9 1.1 4.1 1.6 5 0.4 0.8 1.7 3.5 2.8 6 2.4 5.3 3.1 6.4 9.4 15 2.7 3.6 7 8.2 9.5 10.3 2.6 2.1 5.8 4.8 7.2 6 6.5 5.6 22.5 14.7 25.8 14.7 0.6 0 3.4 1.2 6.4 2.7 5.4 2.7 8.8 3.7 19.3 5.5 3.3 0.5 7.8 1.6 10 2.4 2.3 0.8 6.8 1.4 10.1 1.4 3.3 0 6.4 0.4 7 0.9 0.5 0.5 1.8 1.1 2.9 1.4 4 0.9 48.1 0.6 53 -0.5z m275 -0.3 c2.2 -0.8 6.5 -1.5 9.6 -1.5 3.8 0 6.1 -0.5 6.9 -1.5 0.8 -0.9 3 -1.5 5.9 -1.5 2.6 0 7.3 -0.7 10.4 -1.5 3.2 -0.8 6.6 -1.5 7.6 -1.5 1 0 2.4 -0.6 3.1 -1.4 0.6 -0.8 2.1 -1.6 3.2 -1.8 4.7 -0.7 2.4 -2.6 -6.7 -5.6 -5.2 -1.8 -10.3 -3.2 -11.4 -3.2 -1 0 -2.4 -0.7 -3.1 -1.5 -0.8 -0.9 -3 -1.5 -5.6 -1.5 -2.5 0 -5.2 -0.4 -6.2 -0.8 -0.9 -0.5 -3.5 -1.7 -5.7 -2.8 -2.3 -1.1 -4.5 -3.2 -5.4 -4.9 -0.8 -1.6 -1.8 -3.8 -2.3 -4.7 -1.4 -3.1 -0.8 -6.2 2 -10.3 3.3 -4.7 6.1 -6.2 15 -8.1 3.6 -0.8 7 -1.8 7.6 -2.4 0.5 -0.5 2.7 -1 4.7 -1 2 0 4.2 -0.6 4.8 -1.4 0.6 -0.8 2.4 -1.6 3.9 -1.9 4 -0.7 16.5 -5.5 21.9 -8.4 2.7 -1.4 6.5 -3.4 8.6 -4.5 2 -1.1 3.7 -2.3 3.7 -2.7 0 -0.3 1.3 -1.2 2.8 -1.9 3.3 -1.4 19.3 -17.2 20.4 -20.1 0.4 -1.1 1.4 -2.8 2.3 -3.8 5.8 -6.4 13.5 -22.4 13.5 -28.1 0 -5.8 -1.2 -6.3 -15.5 -6 -13 0.3 -13 0.3 -14.3 6.3 -0.7 3.3 -1.7 6.8 -2.3 7.7 -0.5 1 -0.9 2.4 -0.9 3.1 0 0.7 -1.9 5.1 -4.1 9.7 -4.8 9.7 -11.5 17.1 -19.9 21.8 -9.9 5.6 -14.5 6.2 -44.6 6.2 -22.9 0 -27.3 0.2 -28.4 1.5 -0.7 0.8 -1.8 1.5 -2.6 1.5 -0.7 0 -1.9 0.6 -2.6 1.3 -0.7 0.8 -4 2.9 -7.3 4.7 -3.3 1.8 -6.7 3.8 -7.5 4.5 -0.8 0.7 -3.1 2 -5 3 -1.8 1 -4 2.4 -4.8 3.1 -0.7 0.8 -2.2 1.4 -3.1 1.4 -1 0 -2.4 0.6 -3 1.4 -0.6 0.8 -4.1 2.8 -7.6 4.5 -3.6 1.7 -6.5 3.4 -6.5 3.9 0 0.4 -1.9 1.6 -4.2 2.6 -5.7 2.4 -11.9 5.3 -13.8 6.4 -0.8 0.5 -2.4 1.4 -3.5 2 -1.1 0.7 -3.1 1.7 -4.5 2.4 -11.2 5.2 -15 7.2 -15 7.9 0 0.5 -0.7 0.9 -1.5 0.9 -0.8 0 -3.6 1 -6.2 2.1 -2.7 1.2 -5.9 2.6 -7.3 3.2 -1.4 0.5 -3.2 1.3 -4 1.8 -0.8 0.5 -2.5 1.3 -3.7 1.9 -4.6 1.9 -1.6 6 4.4 6 1.5 0.1 3.9 0.7 5.3 1.5 1.4 0.8 4.1 1.4 6.1 1.5 1.9 0 4 0.5 4.5 1 0.6 0.6 3.7 1.5 7 2.1 3.2 0.6 7.9 1.5 10.4 1.9 2.5 0.5 7 0.9 10.1 0.9 3 0.1 6 0.6 6.7 1.3 0.6 0.6 4.8 1.3 9.3 1.5 4.6 0.2 8.7 0.8 9.3 1.2 1.9 1.6 5.7 1.8 30.6 1.9 19 0.1 25.4 -0.2 28.5 -1.3z m-155.5 -27.7 c5.4 -2.2 9.3 -3.9 12.2 -5.4 1.4 -0.8 3.5 -1.4 4.6 -1.4 1.2 0 2.4 -0.4 2.7 -1 0.3 -0.5 1.5 -1 2.5 -1 1 0 2.5 -0.6 3.2 -1.2 2.1 -1.9 7.8 -4.8 9.5 -4.8 1.3 0 4.4 -1.5 19.8 -9.3 2.8 -1.4 5.7 -2.8 6.5 -3.1 0.8 -0.3 2.2 -1 3 -1.5 0.8 -0.5 2.2 -1.2 3 -1.5 0.8 -0.4 3.8 -2 6.5 -3.7 2.8 -1.6 6.4 -3.7 8 -4.5 1.7 -0.8 3.9 -2.1 5 -2.7 1.1 -0.7 5.7 -3.4 10.2 -6 11 -6.5 11.9 -9.7 2.2 -7.6 -2.6 0.6 -42.2 0.8 -98.4 0.6 -109.5 -0.3 -99.7 0.7 -112.2 -11.3 -4.3 -4 -8.2 -7.4 -8.8 -7.4 -0.5 0.1 -4 2.9 -7.7 6.4 -6.2 5.9 -6.6 6.5 -5 7.8 2.3 2 12.8 8.8 13.5 8.8 0.3 0 2.6 1.4 5 3 2.5 1.7 5.2 3 6.1 3 0.9 0 1.9 0.6 2.2 1.4 0.3 0.8 3.6 2.9 7.2 4.7 3.7 1.8 8.1 4.2 9.7 5.3 3.3 2.4 15.9 8.6 17.4 8.6 0.5 0 1.4 0.7 2.1 1.5 0.7 0.8 1.9 1.5 2.8 1.5 0.8 0 2.3 0.6 3.1 1.4 0.9 0.7 4.1 2.1 7.1 3.2 3 1 6.2 2.3 7 2.9 2.2 1.7 8.6 4.5 10.2 4.5 0.8 0 1.8 0.4 2.4 0.9 0.5 0.4 3.4 1.7 6.4 2.7 3 1 6.1 2.2 6.8 2.8 0.7 0.5 4.1 1.9 7.5 3.1 6.5 2.2 9.6 2.1 16.7 -0.7z m-153.7 -90 c3.6 -2.4 6.7 -6.6 7.8 -10.8 0.4 -1.4 1.9 -7.2 3.4 -13 4.1 -16.3 5.5 -21.4 6.6 -23.2 0.5 -1 0.9 -2.8 0.9 -4.1 0 -1.3 0.4 -2.7 0.9 -3.3 0.5 -0.5 1.6 -4.3 2.5 -8.4 1.9 -9.8 3 -13.4 6.7 -24.2 0.7 -1.8 1.4 -5 1.6 -7 0.4 -2.7 1.5 -4.6 3.9 -6.8 3.5 -3 3.5 -3 22.5 -3 18.2 0 19.1 -0.1 22.7 -2.4 2 -1.3 4.6 -3.3 5.6 -4.5 2.3 -2.6 3.6 -2.7 3.6 -0.3 0 2.6 -3.9 18.4 -5 20.4 -0.6 1 -1 2.8 -1 4 0 1.3 -0.7 3.6 -1.5 5.2 -0.8 1.5 -1.5 4.1 -1.5 5.5 0 1.5 -0.3 3.1 -0.7 3.5 -0.8 0.8 -3.9 13.2 -5 19.6 -0.3 1.9 -1.2 4.4 -1.9 5.5 -0.8 1.1 -1.4 2.8 -1.4 3.9 0 1.1 -0.7 4.3 -1.5 7.3 -0.8 2.9 -2.2 7.7 -3 10.6 -0.8 3 -1.5 6.4 -1.5 7.6 0 1.2 -0.7 3.3 -1.6 4.7 -2.4 3.5 -1.3 9.6 2.1 12.9 2.8 2.5 2.8 2.5 91.9 2.5 89.1 0 89.1 0 91.5 -2.5 1.3 -1.4 2.7 -2.5 3.2 -2.5 1.3 0 3.8 -5.4 4.5 -9.9 0.4 -2.3 1.1 -4.4 1.5 -4.7 0.5 -0.3 0.9 -1.7 0.9 -3.1 0 -1.4 0.6 -3.9 1.4 -5.6 1.6 -4 3.4 -10.6 4.7 -17.6 0.5 -2.9 1.4 -6.2 1.9 -7.2 0.6 -1 1 -2.9 1 -4.3 0 -1.3 0.6 -3.7 1.4 -5.3 1.5 -2.9 2.3 -6 5.7 -20.3 1 -4.7 2.4 -9.8 3 -11.5 0.6 -1.6 1.5 -4.6 1.9 -6.5 0.5 -1.9 1.7 -6 2.6 -9 0.9 -3 2.2 -8.2 2.8 -11.5 0.6 -3.3 1.4 -6.4 1.7 -7 1.1 -1.7 2 -6.8 2.1 -11.8 0 -3.7 -0.5 -5.4 -2.2 -7.2 -2.3 -2.5 -2.3 -2.5 -69.4 -2.5 -67.1 0.1 -67.1 0.1 -71 2.8 -2.3 1.6 -5.1 5.1 -7.1 8.6 -5.1 9.6 -6 10 -24.5 10.6 -15.2 0.5 -16 0.7 -18.6 3 -1.5 1.4 -3.5 3.8 -4.5 5.4 -1.4 2.4 -1.9 2.7 -2.4 1.4 -0.8 -2.1 3.1 -20.7 4.6 -21.8 0.3 -0.3 1 -2.4 1.4 -4.7 0.4 -2.4 1.1 -4.5 1.6 -4.9 0.5 -0.3 0.9 -1.5 0.9 -2.8 0 -2.9 3.8 -18.6 5 -20.8 0.6 -1 1 -2.8 1 -4 0.1 -1.3 0.7 -3.4 1.5 -4.8 2.2 -3.9 1.9 -11.3 -0.6 -13.6 -2 -1.8 -4.3 -1.9 -37.3 -2.2 -19.3 -0.2 -37 0 -39.3 0.3 -6 0.9 -9.8 4.8 -11.8 12.1 -0.9 3.2 -2 6.6 -2.4 7.4 -0.5 0.9 -1.2 3.5 -1.6 5.8 -0.4 2.3 -1.1 4.4 -1.6 4.8 -0.5 0.3 -0.9 1.5 -0.9 2.7 0 3.3 -3 15.8 -4.6 19 -0.8 1.6 -1.4 4.1 -1.4 5.5 -0.1 1.5 -0.7 3.8 -1.5 5.2 -0.8 1.4 -1.4 3.4 -1.5 4.4 0 3.4 -4 6.6 -8.1 6.6 -4.8 0 -6.9 -2.9 -4.6 -6.3 0.8 -1.3 1.7 -4 2 -6.2 0.3 -2.2 1.5 -7.8 2.7 -12.5 1.1 -4.7 2.4 -9.8 2.7 -11.5 0.3 -1.6 1 -3.3 1.6 -3.6 0.5 -0.4 1.3 -2.7 1.8 -5 0.4 -2.4 1.5 -7.9 2.5 -12.3 2.3 -10.5 1.3 -14.6 -3.6 -15.9 -1.9 -0.5 -10.3 -0.7 -18.7 -0.5 -15.2 0.3 -15.2 0.3 -18.7 3.7 -2 1.9 -3.6 4.5 -3.6 5.7 0 1.3 -1.9 4.2 -4.5 6.8 -4.4 4.6 -4.4 4.6 -19.7 4.6 -13 0 -15.7 0.3 -18 1.8 -3.5 2.3 -7.8 8.7 -7.8 11.5 0 1.3 -0.5 2.8 -1.1 3.4 -1.2 1.2 -2.4 5.4 -4.4 15.8 -1.5 7.5 -2.8 12.4 -5.1 19.3 -0.8 2.3 -1.4 6.5 -1.4 9.3 0 4.1 0.5 5.4 2.6 7.4 2.7 2.5 2.9 2.5 22 2.5 18.6 0 19.3 0.1 20.8 2.2 0.9 1.3 1.2 2.7 0.7 3.7 -0.5 0.9 -1.2 4.1 -1.5 7.1 -0.7 5.4 -3.7 15.4 -5 16.7 -0.3 0.3 -0.6 1.9 -0.6 3.5 0 1.6 -0.5 3.8 -1 4.8 -0.6 1.1 -1.7 5.2 -2.6 9.2 -2.8 13.5 -3.2 15 -4.3 16.1 -0.6 0.6 -1.1 2.5 -1.1 4.2 0 1.7 -0.7 4 -1.5 5.1 -0.8 1 -1.5 3.1 -1.5 4.5 0 1.5 -0.7 4.6 -1.5 6.9 -0.8 2.3 -1.5 7.4 -1.5 11.2 0 11.3 -2.4 10.7 41.2 10.8 36.4 0 36.7 0 40.1 -2.2z m346.6 -0.3 c2.2 -1.3 4.3 -3 4.7 -3.7 1.6 -2.4 4.3 -11.3 4.4 -13.9 0 -1.4 0.4 -2.9 1 -3.5 0.5 -0.5 1.4 -3 1.9 -5.4 0.5 -2.5 1.9 -8.1 3.2 -12.5 1.2 -4.4 2.4 -9.6 2.7 -11.5 0.2 -1.9 1.1 -4.4 1.8 -5.5 0.8 -1.1 1.4 -3.2 1.4 -4.7 0 -1.6 0.4 -3.6 0.9 -4.6 1.3 -2.6 3.9 -12.1 4.7 -17.2 0.9 -6.1 5 -14.7 7.9 -16.6 2.9 -1.9 6.4 -1.5 7.9 0.8 0.7 1.2 0.7 3.3 -0.3 7.5 -0.7 3.2 -1.6 7.4 -1.8 9.3 -0.3 1.9 -1 4.1 -1.6 4.8 -1 1.3 -2.5 7 -3.4 13.3 -0.4 3 0 4 2.7 6.7 3.2 3.2 3.2 3.2 40 3.2 35.7 0 37 -0.1 40.4 -2.1 3.7 -2.2 7.6 -9 7.6 -13.3 0 -1.2 0.7 -3.1 1.5 -4.2 0.8 -1 1.5 -2.9 1.5 -4.2 0 -1.2 0.4 -3 0.9 -4 0.6 -0.9 1.9 -6.2 3.1 -11.7 1.2 -5.5 2.8 -11.2 3.6 -12.7 0.8 -1.4 1.4 -3.8 1.4 -5.2 0 -1.5 0.4 -3.4 0.9 -4.4 1.6 -2.9 5.1 -18.6 5.1 -22.7 0 -4.5 -0.5 -5.4 -4 -7.8 -2.2 -1.6 -8 -1.7 -68.5 -1.6 -65.7 0.1 -66 0.1 -70 2.2 -3.2 1.7 -4.7 3.7 -7.5 9.2 -4.8 9.5 -6.2 10.1 -25.6 10.7 -13.7 0.4 -15.3 0.6 -17.9 2.6 -3.3 2.6 -6 8.1 -7.4 15 -0.9 4.5 -2.3 9.9 -5.7 20.7 -0.8 2.8 -1.9 7.3 -2.5 10.2 -0.5 2.9 -1.4 6.4 -1.9 7.8 -0.6 1.5 -1 3.7 -1 4.9 0 1.3 -0.7 2.9 -1.5 3.6 -0.8 0.7 -1.5 2.7 -1.5 4.4 0 1.8 -0.7 4.1 -1.5 5.2 -0.8 1 -1.5 3.3 -1.5 5 0 1.7 -0.7 5.3 -1.5 8 -0.8 2.7 -1.5 6 -1.5 7.4 0 1.4 -0.7 3.4 -1.5 4.4 -0.8 1.1 -1.5 3 -1.5 4.2 0 1.2 -0.7 3.8 -1.5 5.7 -2.3 5.5 -2 12.7 0.7 16 2.2 2.7 2.2 2.7 39.5 2.7 37.3 0 37.3 0 41.2 -2.5z m301 0.4 c4.7 -2.4 8.5 -9.3 9.6 -17.1 0.3 -2.6 1 -5 1.6 -5.3 0.5 -0.4 0.9 -1.8 0.9 -3.2 0 -1.4 0.6 -3.9 1.4 -5.6 0.7 -1.8 2.4 -7.7 3.6 -13.2 1.2 -5.5 2.6 -10.8 3.1 -11.7 0.5 -1 0.9 -2.8 0.9 -4.1 0 -1.2 0.6 -3.1 1.4 -4.2 0.7 -1.1 1.6 -3.6 1.9 -5.5 0.3 -1.9 1.5 -7.3 2.7 -12 1.2 -4.7 2.5 -10.1 3 -12 0.4 -1.9 1.3 -4.8 1.9 -6.5 1.9 -5.6 5 -17 6.1 -23 0.7 -3.3 1.5 -6.7 2 -7.5 0.4 -0.9 1.1 -3.1 1.5 -5 0.4 -1.9 1.1 -4.1 1.5 -5 0.8 -1.6 2.4 -7.9 4.5 -17.5 2.7 -12 3.7 -15.5 4.5 -15.5 0.4 0 1 -1.7 1.4 -3.7 0.3 -2.1 0.8 -5.5 1.2 -7.6 0.4 -2.2 0.1 -5 -0.6 -6.7 -1.7 -4 -3.3 -4.2 -45 -3.8 -32.9 0.3 -35.7 0.4 -38.7 2.2 -3.5 2.1 -4.8 4.5 -5.9 10.3 -0.3 2.1 -1 4.3 -1.4 4.8 -0.4 0.6 -1.1 2.9 -1.5 5.3 -0.4 2.3 -1 4.2 -1.5 4.2 -0.4 0 -1 1.7 -1.3 3.8 -0.8 6.2 -3.3 11.4 -6.8 14.4 -3.4 2.7 -3.4 2.7 -47.5 2.8 -41.2 0 -44.3 0.1 -48 1.9 -5.6 2.7 -7.6 5.3 -9 11.9 -2.6 11.4 -3.8 15.2 -4.6 15.2 -0.4 0 -0.8 1.2 -0.8 2.6 0 1.4 -0.6 4 -1.4 5.7 -0.7 1.8 -1.8 5.9 -2.4 9.2 -1.7 9.8 -2.9 14.4 -3.9 15.7 -0.6 0.7 -1.3 2.9 -1.6 4.8 -0.2 1.9 -0.9 4.9 -1.5 6.5 -0.6 1.7 -1.8 6.6 -2.7 11 -0.9 4.4 -2.3 9.3 -3.1 10.8 -0.8 1.6 -1.4 4.1 -1.4 5.5 0 1.5 -0.7 3.6 -1.5 4.6 -0.8 1.1 -1.5 3.2 -1.5 4.7 0 1.6 -0.5 4 -1.2 5.4 -0.9 1.9 -0.8 3.4 0.2 6.5 1.7 5 4.6 6 18.5 6 9.5 0 16.9 1 18.3 2.5 0.4 0.4 0.7 3.2 0.8 6.3 0.1 8.5 0.2 9 2.4 11.2 2 2 3.3 2 69 2 65.9 0 67 0 70.9 -2.1z m100.4 -2.1 c3.7 -3.6 4.7 -5.2 5.7 -10 0.6 -3.2 1.6 -6 2.1 -6.3 0.5 -0.4 0.9 -2 0.9 -3.6 0 -1.7 0.5 -4 1.2 -5.2 0.6 -1.2 1.5 -3.8 1.9 -5.7 1.5 -6.3 3.8 -16.4 5 -21.5 0.6 -2.7 1.5 -5.5 2 -6 0.7 -1 2.4 -6.7 3.5 -12.5 0.3 -1.4 0.9 -3.4 1.4 -4.5 0.5 -1.1 1.4 -4.6 2 -7.7 2.1 -10.7 6.1 -16.1 11.5 -15.6 3 0.3 3 0.3 2.8 8 -0.1 4.6 -0.8 8.8 -1.7 10.7 -0.9 1.6 -1.6 4.3 -1.6 5.9 0 1.6 -0.7 3.5 -1.5 4.2 -0.9 0.7 -1.5 2.9 -1.5 5.1 0 2.1 -0.4 4 -0.9 4.4 -0.5 0.3 -1.3 3.1 -1.6 6.3 -0.4 3.1 -1.3 7.1 -2.1 8.9 -0.8 1.7 -1.4 4.2 -1.4 5.5 0 1.3 -0.4 2.8 -0.9 3.4 -0.6 0.5 -1.4 2.7 -2 4.9 -0.5 2.2 -1.5 5.8 -2.1 8 -2.4 8.6 -3.9 17.9 -3.3 20.4 0.3 1.4 1.5 3.6 2.6 4.9 2 2.2 2 2.2 39.5 2.2 37.4 0 37.4 0 41.6 -3.4 3.2 -2.7 4.6 -4.8 6 -9.3 1 -3.2 2.2 -6.7 2.6 -7.9 0.5 -1.2 1.1 -4.8 1.5 -8 0.4 -3.2 1.3 -6.9 2.1 -8.1 0.8 -1.2 1.4 -3.5 1.4 -5 0 -1.6 0.6 -3.7 1.4 -4.8 0.7 -1.1 1.6 -3.3 1.9 -5 2.9 -14.8 5.8 -25.7 7.4 -27.6 0.7 -0.8 1.3 -3 1.3 -4.7 0 -1.8 0.4 -4 0.9 -5 0.5 -0.9 1.9 -6.4 3.2 -12.2 1.2 -5.8 2.9 -11.4 3.6 -12.5 0.7 -1.1 1.3 -3.2 1.3 -4.7 0 -1.6 0.4 -3.6 0.9 -4.6 1.2 -2.3 4.1 -16 4.1 -19.3 0 -1.6 -1.1 -3.6 -3 -5.2 -3 -2.7 -3 -2.7 -69.7 -2.7 -66.8 0.1 -66.8 0.1 -70.8 2.8 -2.6 1.8 -5 4.8 -7 8.7 -4.8 9.4 -5.9 9.9 -24.4 10.6 -14.4 0.5 -16 0.7 -18.6 2.7 -4.4 3.5 -5.2 5.2 -7.6 15.3 -1.2 5.2 -2.6 9.8 -3 10.4 -0.5 0.5 -0.9 1.5 -0.9 2.3 0 0.8 -0.6 2.8 -1.4 4.5 -0.8 1.8 -1.7 4.8 -2 6.7 -0.9 6.3 -3.4 17.4 -4.6 21 -0.7 1.9 -1.9 5.1 -2.5 7 -0.7 1.9 -2 7.1 -2.9 11.5 -0.9 4.4 -2.3 10.1 -3.1 12.6 -0.8 2.6 -1.5 5.6 -1.5 6.7 0 1.1 -0.7 2.5 -1.5 3.2 -0.8 0.7 -1.5 2.7 -1.5 4.6 0 1.8 -0.4 3.6 -1 3.9 -0.5 0.3 -1 2.6 -1 4.9 0 3.6 0.6 4.9 3.2 7.5 3.2 3.1 3.2 3.1 40.4 3.1 37.1 0 37.1 0 41.7 -4.2z m301.7 2.7 c0.7 -0.8 1.8 -1.5 2.5 -1.5 1.5 0 5.5 -6.3 5.5 -8.8 0 -0.9 0.7 -2.6 1.5 -3.6 0.8 -1.1 1.5 -2.8 1.5 -3.9 0 -1.1 0.7 -4 1.5 -6.6 2.4 -7.7 4.5 -16.6 4.5 -19.3 0 -1.4 0.7 -3.1 1.5 -3.8 0.8 -0.7 1.5 -2.9 1.5 -5 0 -2.1 0.6 -4.3 1.4 -4.9 0.8 -0.7 1.6 -2.8 1.9 -4.9 0.9 -5.8 3.4 -17.4 4.6 -20.9 0.6 -1.8 1.6 -4.8 2.2 -6.5 0.6 -1.8 1.5 -4.9 1.9 -6.8 0.5 -1.9 1.5 -6.2 2.3 -9.5 2.7 -11.3 3.9 -16 4.7 -17.5 0.4 -0.9 1.1 -3.5 1.5 -5.8 0.4 -2.3 1.1 -4.4 1.6 -4.8 1.2 -0.7 1.1 -7.1 -0.1 -9.5 -2.5 -4.6 -4.7 -4.9 -41.8 -4.9 -36.9 0 -38.9 0.2 -43.8 4.8 -2.6 2.5 -5.3 10 -7.1 19.7 -0.3 1.7 -1.1 3.7 -1.8 4.5 -0.7 0.8 -1.5 3.1 -1.8 5 -2.1 12.9 -4.7 23 -7.3 28.2 -0.8 1.4 -1.4 3.8 -1.4 5.2 0 1.4 -0.4 3.5 -0.9 4.8 -0.5 1.3 -1.9 6.8 -3.2 12.3 -3 13.8 -8 20.2 -13.5 17.6 -1.9 -0.8 -2.4 -1.8 -2.4 -4.8 0 -3.8 3.3 -17.2 5.1 -20.5 0.5 -1 0.9 -2.9 0.9 -4.4 0 -1.4 0.6 -4 1.4 -5.7 0.8 -1.8 1.6 -4.5 1.9 -6.2 1.1 -7.1 3.9 -18.1 4.8 -19 0.5 -0.5 0.9 -2.1 0.9 -3.5 0 -1.4 0.6 -3.4 1.4 -4.5 0.7 -1.1 1.6 -3.8 1.9 -6 0.3 -2.2 1 -5.8 1.6 -8 0.6 -2.2 1.1 -6.6 1.1 -9.7 0 -5.1 -0.3 -5.9 -2.9 -7.7 -2.8 -2 -4.1 -2.1 -38.4 -2.1 -47 0 -44.7 -1 -51.2 23.5 -0.9 3.3 -1.9 7.4 -2.1 9 -0.3 1.7 -0.9 3.9 -1.4 5 -1.1 2.6 -3.4 11.1 -5.5 20 -1.5 6.6 -3 12.1 -6.1 22.5 -2.4 8.2 -4.4 16.6 -4.4 18.6 0 1 -0.7 3.2 -1.5 4.8 -0.8 1.5 -1.5 4 -1.5 5.5 0 1.5 -0.7 3.6 -1.5 4.7 -2.2 2.9 -1.7 7.5 1 10.9 2.5 3 2.5 3 16.7 3.6 19.6 0.9 18.8 0.5 18.8 9.6 0 6.4 0.3 7.9 2.3 9.9 2.2 2.4 2.2 2.4 70.3 2.4 59.4 0 68.3 -0.2 69.4 -1.5z m100.3 -0.7 c2 -1.3 4 -3.2 4.6 -4.3 0.6 -1.1 1.5 -2.7 2 -3.5 0.5 -0.8 1.7 -4.2 2.6 -7.5 0.9 -3.3 2.1 -7.3 2.5 -9 0.5 -1.6 1.2 -5.2 1.6 -8 0.3 -2.7 1 -5.4 1.4 -6 0.5 -0.5 1.1 -2.7 1.5 -4.8 0.4 -2 1.1 -4 1.6 -4.3 0.5 -0.3 0.9 -1.7 0.9 -3.2 0 -1.5 0.6 -3.8 1.3 -5.3 0.8 -1.4 1.7 -4.7 2.1 -7.5 1.2 -8.5 3.1 -16.3 4.4 -17.6 0.6 -0.6 1.2 -2.6 1.2 -4.3 0 -1.7 0.6 -3.9 1.4 -5 0.7 -1.1 1.6 -3.6 1.9 -5.5 1 -6.9 3.8 -18.5 4.8 -19.5 0.5 -0.5 0.9 -2 0.9 -3.5 0.1 -1.4 0.7 -3.6 1.5 -5 0.8 -1.4 1.4 -3.8 1.5 -5.3 0 -1.6 0.4 -3.6 1 -4.6 0.5 -1 1.4 -4.3 1.9 -7.2 0.5 -3 1.4 -6.9 2 -8.6 0.6 -1.8 1.6 -4.8 2.2 -6.5 1.3 -4 2.4 -8.2 4.2 -16.8 0.8 -3.6 2 -8.1 2.7 -10.2 1.7 -4.7 0.4 -9.8 -3 -11.6 -1.8 -0.9 -6.9 -1.2 -18.5 -1 -18.8 0.3 -20.3 0.9 -24 9.5 -2.6 5.7 -3.5 6.9 -7.7 9.6 -2.3 1.4 -5.1 1.7 -16.8 1.7 -11 0 -14.8 0.4 -17.3 1.6 -3.6 1.8 -6.6 5.2 -6.7 7.4 0 0.8 -0.7 2.8 -1.5 4.4 -0.8 1.5 -1.5 3.8 -1.5 5 0 1.2 -0.5 2.7 -1.2 3.4 -0.6 0.6 -1.5 3 -1.9 5.4 -1.3 7.1 -3.7 17.1 -4.8 20.1 -0.6 1.6 -1.1 3.9 -1.1 5.1 0 1.3 -0.7 2.9 -1.5 3.6 -0.9 0.7 -1.5 2.9 -1.5 5.1 0 2.2 -0.4 3.9 -1 3.9 -0.5 0 -1 1 -1 2.3 0 2.6 -3.6 18.1 -5 21.2 -0.8 1.9 -2.3 7.2 -4 14.5 -2.4 10.3 -4.4 17.7 -5.1 19.2 -0.5 1 -0.9 3 -0.9 4.6 0 1.5 -0.6 3.6 -1.4 4.7 -0.7 1.1 -1.6 3.6 -1.9 5.5 -0.3 1.9 -1.5 7.1 -2.7 11.5 -2.9 10.7 -4.1 18.3 -3.4 22.3 1.2 6.2 1 6.2 41.6 6.2 36.3 0 36.7 0 40.1 -2.2z m204 -2.2 c3.2 -3.1 4.8 -5.5 5.3 -8.3 0.4 -2.1 1.3 -4.7 2 -5.8 0.8 -1.1 1.4 -3.2 1.4 -4.7 0 -1.5 0.4 -2.9 0.9 -3.2 1.2 -0.8 2.4 -11.1 1.6 -14.6 -1.3 -5.9 -1.8 -6 -51.2 -6 -24.6 0 -45.4 -0.4 -46.1 -0.9 -1.1 -0.6 -1 -1.5 0.6 -4.2 1.9 -3.4 1.9 -3.4 49.5 -3.9 47.7 -0.5 47.7 -0.5 51.3 -4.2 4.2 -4.1 6.1 -8.5 7.8 -17.5 0.6 -3.4 1.4 -6.5 1.9 -6.9 0.4 -0.4 0.7 -2.1 0.7 -3.9 0 -1.7 0.7 -4 1.5 -5.1 0.8 -1 1.5 -3.2 1.5 -4.7 0 -1.6 0.5 -3.7 1.1 -4.8 1.4 -2.7 3.5 -11.1 4.4 -17.4 0.4 -2.7 1.3 -6 2.1 -7.2 0.8 -1.2 1.4 -3.5 1.4 -5 0 -1.5 0.7 -3.6 1.4 -4.6 1.9 -2.4 0.8 -6.3 -2.6 -9.7 -3 -3 -3 -3 -69.2 -3 -59.5 0 -66.6 0.2 -69.7 1.6 -4.9 2.4 -6.7 4.2 -7.4 7.4 -0.8 3.6 -6.7 10.4 -10.2 11.8 -1.5 0.6 -9.4 1.2 -17.6 1.4 -14.7 0.4 -14.7 0.4 -18.2 3.8 -1.9 1.9 -3.5 4.4 -3.5 5.6 0 1.2 -0.6 2.7 -1.4 3.3 -0.8 0.7 -1.6 2.8 -1.9 4.9 -0.3 2 -1.5 7.5 -2.7 12.2 -1.2 4.7 -2.4 10.1 -2.7 12 -0.3 1.9 -1 4.1 -1.6 4.8 -0.5 0.7 -1.3 2.9 -1.8 5 -2.1 10.1 -6.3 26 -7.5 28.9 -0.8 1.7 -1.4 4.2 -1.4 5.5 0 1.3 -0.4 2.8 -0.8 3.4 -0.5 0.5 -1.9 5.4 -3.1 10.9 -1.3 5.5 -2.7 11.3 -3.2 12.9 -1.8 5.7 -1.1 9.2 2.2 12 3.1 2.6 3.1 2.6 91.9 2.6 88.8 0 88.8 0 93.3 -4.4z m-1481.4 -167.8 c3.2 -14.4 14.4 -28 29.9 -36.1 4.6 -2.5 6.9 -2.9 16.3 -3.4 11 -0.6 11 -0.6 17.9 -7.1 9.1 -8.5 13.6 -11.1 22.9 -13.1 8 -1.7 38.7 -1.4 45.9 0.4 4.8 1.3 6.9 1.3 10.8 0.4 2.7 -0.6 12.1 -1.4 20.9 -1.8 16.4 -0.6 16.7 -0.7 26.2 -6 1 -0.6 5 -2.5 8.8 -4.4 3.9 -1.8 7.9 -3.9 9 -4.5 1.1 -0.6 7.9 -3.8 15 -7.2 7.2 -3.4 14.6 -6.9 16.5 -7.8 4.6 -2.2 4.4 -3.6 -0.5 -4.3 -2.2 -0.3 -4.9 -1 -6 -1.6 -2.2 -1.2 -10.8 -3.1 -19.3 -4.2 -2.8 -0.4 -5.7 -1.2 -6.4 -1.9 -0.7 -0.7 -3.2 -1.2 -5.6 -1.2 -2.4 0 -5.3 -0.5 -6.5 -1.2 -4.7 -2.6 -36.3 -4.9 -63.7 -4.6 -23.6 0.3 -24.5 0.4 -24.8 2.3 -0.7 5 -1.4 6.5 -3.8 9.4 -1.4 1.7 -3.4 3.1 -4.4 3.1 -1 0 -2.3 0.7 -3 1.5 -0.7 0.8 -2.4 1.5 -3.8 1.5 -1.4 0 -3.9 0.4 -5.6 0.9 -1.7 0.6 -7.1 2 -12.1 3.2 -4.9 1.2 -9.7 2.7 -10.5 3.4 -0.8 0.6 -3.5 1.8 -6 2.5 -2.5 0.8 -6.1 2.2 -8 3.2 -1.9 1 -4 1.8 -4.7 1.8 -0.7 0 -1.3 0.5 -1.3 1 0 0.6 -0.5 1 -1.1 1 -1.9 0 -13.2 7.1 -17.3 10.9 -14.1 13.1 -20.5 22.1 -27.6 38.6 -3.5 8.3 -3.7 8.8 -5.5 13.9 -2.1 5.9 -1.6 16.9 1.1 23.1 1.7 4 1.7 4 3.5 -1.5 1 -3 2.3 -7.6 2.8 -10.2z m-25.9 5.5 c0 -1.8 0.6 -4.7 1.4 -6.5 0.8 -1.8 2.9 -8 4.7 -13.8 3.9 -12.7 13.3 -32 20 -41.1 8.4 -11.4 25.2 -25.5 36.9 -31.1 11.3 -5.3 17.1 -7.8 22 -9.4 3 -0.9 6.4 -2.1 7.5 -2.5 1.1 -0.4 6.6 -2.1 12.2 -3.9 9.3 -2.8 12.3 -4.3 11 -5.6 -0.2 -0.2 -4.6 -1.5 -9.8 -2.8 -9.7 -2.5 -11 -2.9 -24.4 -7.9 -9.7 -3.6 -24.1 -10.7 -31.5 -15.6 -7.3 -4.7 -24 -21.5 -24 -24.1 0 -0.5 -0.3 -1 -0.7 -1.2 -2.9 -1.2 -14.5 -24.2 -17.9 -35.2 -1.4 -4.4 -2.9 -9 -3.3 -10.1 -2 -5.3 -4.1 -12.5 -4.1 -14.2 0 -1.1 -0.6 -2.7 -1.3 -3.7 -1.2 -1.6 -1.4 -1.6 -3 0.2 -1 1.1 -2.1 4.3 -2.6 7.1 -0.5 2.9 -1.3 5.7 -2 6.4 -0.6 0.6 -1.1 1.9 -1.1 2.8 0 0.9 -0.7 3 -1.5 4.5 -0.8 1.6 -1.5 3.6 -1.5 4.4 -0.1 2.8 -5.6 16.8 -7.1 18 -0.3 0.3 -1.8 3 -3.2 6 -10.2 22.3 -35.4 43.9 -63.2 54.1 -14.6 5.3 -16.4 5.9 -26 8.3 -10.9 2.6 -11.5 4.1 -3 6.9 3.3 1.1 6.9 2.4 8 2.8 1.1 0.4 6.4 2.2 11.9 3.9 12.1 3.7 28.8 11.6 37.6 17.7 6.3 4.5 24 21.6 24 23.3 0 0.5 0.6 1.5 1.3 2.2 3.8 4.1 10.7 16 10.7 18.4 0 0.7 0.6 1.9 1.3 2.6 1.7 1.9 4.2 7.4 6.2 13.8 1.7 5.2 2.4 7.2 5.5 16 0.6 1.9 1.6 5.5 2.1 7.9 0.5 2.5 1.7 5.3 2.6 6.3 1.6 1.8 1.8 1.8 3 0.2 0.7 -1 1.3 -3.3 1.3 -5.1z m485.7 -12.4 c2.1 -1.2 7.4 -3 11.8 -4 6.9 -1.6 12.8 -1.9 44.2 -1.9 38.7 0 38.1 0.1 36 -5 -0.6 -1.4 -1.4 -5 -1.8 -8 -0.9 -6.5 -2.8 -16.1 -3.5 -17.5 -0.2 -0.5 -1.3 -2.3 -2.4 -4 -1 -1.6 -3.4 -5.9 -5.2 -9.5 -2.3 -4.6 -6.2 -9.4 -13 -16.2 -5.3 -5.4 -10.3 -9.8 -11.1 -9.8 -0.8 0 -2.2 -0.9 -3.2 -2 -1 -1.1 -4.6 -3.4 -7.9 -5 -3.4 -1.7 -6.8 -3.4 -7.6 -3.9 -4 -2.2 -8 -3.9 -13.5 -5.6 -3.3 -0.9 -7.2 -2.4 -8.7 -3.1 -1.4 -0.8 -4.6 -1.4 -7.1 -1.4 -2.5 0 -4.7 -0.5 -4.9 -1.2 -0.4 -1.1 -4.7 -2 -19.8 -3.8 -10.7 -1.2 -54.4 -1.2 -67 0 -20.5 2.1 -25.2 2.8 -26.3 3.9 -0.6 0.6 -3.4 1.1 -6.3 1.1 -3.4 0 -5.6 0.5 -6.4 1.5 -0.7 0.9 -3 1.5 -5.4 1.5 -5.5 0.1 -21.5 3.5 -22.9 4.9 -0.6 0.6 -2.8 1.1 -4.9 1.1 -2.7 0 -3.8 0.4 -3.8 1.5 0 0.8 0.4 1.5 0.9 1.5 1 0 12.7 5.4 29.7 13.6 5 2.4 9.4 4.4 9.8 4.4 0.4 0 2.2 1.1 4 2.5 1.8 1.4 4.2 2.5 5.3 2.5 1.1 0 3.9 1.4 6.1 3 2.3 1.7 4.7 3 5.3 3 0.6 0 2.3 0.8 3.7 1.8 1.5 1 4.4 2.7 6.6 3.8 2.1 1 5 2.6 6.5 3.4 12.4 7 17.1 9.8 20.5 12.2 2.1 1.5 4.6 2.8 5.5 2.8 0.9 0 3.6 1.8 6.1 4 2.5 2.2 5.2 4 6.1 4 0.9 0 2.2 0.7 2.9 1.5 0.7 0.8 1.8 1.5 2.5 1.5 0.7 0 1.8 0.7 2.5 1.6 0.8 0.8 4.3 3.3 7.9 5.5 3.6 2.2 8.6 5.5 11.1 7.4 2.5 1.8 5 3.4 5.5 3.5 0.6 0 2.4 1.2 4 2.5 3.6 3 3.5 3 8.2 0.4z m-51.5 -6.7 c0.9 -0.9 -8.5 -8.2 -10.5 -8.2 -0.8 0 -2.2 -0.9 -3.1 -1.9 -1 -1.1 -4.3 -3.5 -7.3 -5.3 -3 -1.8 -7.6 -4.7 -10.1 -6.3 -2.6 -1.7 -7.8 -4.6 -11.7 -6.5 -3.8 -1.9 -8.3 -4.4 -10 -5.6 -1.6 -1.1 -5.5 -3.3 -8.5 -4.8 -3 -1.4 -6.2 -3 -7 -3.5 -3.2 -1.9 -26.5 -13.1 -27.3 -13.1 -0.5 0 -3.8 -1.3 -7.4 -3 -3.5 -1.6 -6.7 -3 -7 -3 -0.3 0 -3.5 -1.3 -7 -3 -3.4 -1.6 -7.4 -3 -8.8 -3 -1.4 0 -3.7 -0.7 -5.1 -1.6 -3 -2 -9.3 -1.4 -17.4 1.7 -3 1.1 -6.8 2.5 -8.5 3.1 -1.6 0.6 -3.4 1.5 -4 1.9 -0.5 0.5 -1.7 0.9 -2.6 0.9 -0.9 0 -2.2 0.7 -2.9 1.5 -0.7 0.8 -2.1 1.5 -3.1 1.5 -1.1 0 -4.8 1.4 -8.2 3 -3.5 1.7 -6.9 3 -7.5 3 -0.6 0 -1.3 0.9 -1.7 1.9 -0.3 1.1 -1.4 2.2 -2.3 2.4 -0.9 0.3 1.1 0.5 4.5 0.6 8.4 0.1 15.8 1.8 21.8 4.9 6.6 3.4 16.6 13.8 18.6 19.4 3.7 10.2 4.9 14.9 4.9 19.4 0 4.9 0 4.9 69.2 4.6 38.1 -0.2 69.6 -0.6 70 -1z"/>
  <path d="M315.8 547.6 c-1.5 -0.8 -5.5 -1.6 -9 -1.9 -3.5 -0.2 -8.1 -0.9 -10.3 -1.5 -3.7 -1 -10.9 -2.5 -18 -3.8 -2.7 -0.5 -8.1 -2.8 -12.5 -5.4 -0.8 -0.4 -3.5 -1.4 -6 -2.1 -2.5 -0.8 -6.3 -2.8 -8.6 -4.5 -2.2 -1.7 -4.5 -3.3 -5.1 -3.5 -4.5 -1.7 -15.7 -12.9 -19.6 -19.6 -1.3 -2.1 -0.1 -2.8 2.6 -1.6 7.4 3.6 15.8 4.3 52 4.3 29.1 0 36.4 0.3 38.5 1.4 1.5 0.8 3.4 1.7 4.2 2 0.8 0.4 2.9 1.5 4.5 2.6 1.7 1.1 3.6 2.3 4.4 2.7 0.8 0.3 4.4 2.6 7.9 5 3.6 2.4 7.3 4.3 8.3 4.3 1.1 0 1.9 0.4 1.9 0.9 0 0.5 1 1.3 2.3 1.7 1.2 0.4 3.6 1.7 5.2 2.9 1.7 1.3 5.3 3.3 8 4.5 2.8 1.2 5.2 2.6 5.5 3 0.3 0.4 2.2 1.5 4.3 2.5 5.6 2.6 4.1 4 -4.8 4.3 -4.4 0.2 -8.6 0.8 -9.3 1.5 -1 0.8 -8.1 1.3 -22.6 1.5 -17.1 0.2 -21.6 0 -23.8 -1.2z m4.2 -17.2 c0 -0.4 -1.1 -1.7 -2.6 -3 -2 -2 -3.6 -2.4 -8.2 -2.4 -5.7 0 -9.3 1.2 -7.9 2.7 0.4 0.4 3.8 0.9 7.5 1.1 3.7 0.2 7.1 0.8 7.7 1.3 1 1 3.5 1.2 3.5 0.3z"/>
  <path d="M590 548.2 c-1.4 -0.2 -2.9 -0.8 -3.4 -1.3 -0.6 -0.5 -4.5 -0.9 -8.7 -0.9 -4.3 0 -8 -0.4 -8.4 -1 -0.3 -0.5 1.1 -1.9 3.2 -3 2.1 -1.1 5.6 -3.1 7.8 -4.4 2.2 -1.2 6.7 -3.7 10 -5.6 3.3 -1.8 7.8 -4.3 10 -5.6 2.2 -1.3 4.7 -2.7 5.5 -3.1 0.8 -0.3 3.1 -1.9 5.1 -3.4 4.5 -3.5 8.9 -4.8 8.9 -2.6 0 0.9 -0.4 1.9 -1 2.2 -1.1 0.7 -1.4 17.8 -0.3 18.9 0.4 0.4 1.3 2.6 2 4.9 0.9 3.2 1 4.3 0 4.9 -1.2 0.7 -25.7 0.7 -30.7 0z"/>
  <path d="M469.6 518.6 c-1.5 -0.9 -3.3 -1.6 -3.8 -1.6 -0.6 0 -2.4 -0.6 -4.1 -1.4 -8.4 -3.8 -13.1 -5.6 -14.6 -5.7 -1.2 0 -1.1 -0.2 0.4 -0.9 2.3 -1 47.7 -1.3 52.4 -0.4 3.1 0.6 2.8 0.9 -5.2 3.9 -4.7 1.7 -9.7 3.9 -11.1 4.9 -3.8 2.4 -10.5 3 -14 1.2z"/>
  <path d="M496.2 405.3 c-2.1 -0.8 -3.3 -4.1 -2.3 -6 1.3 -2.4 5.1 -17.6 5.1 -20.6 0 -1.3 0.7 -3.2 1.5 -4.3 0.8 -1 1.5 -3.3 1.5 -5.1 0 -1.7 0.5 -3.5 1 -3.8 0.6 -0.3 1 -1.4 1 -2.4 0 -3.1 4 -11 6.1 -12.1 1.1 -0.6 3.2 -1 4.7 -0.8 2.6 0.3 2.7 0.5 2.6 6.3 0 3.3 -1.3 10.1 -2.7 15 -1.5 5 -2.7 10 -2.7 11.1 0 1.2 -0.7 3.5 -1.5 5 -0.8 1.6 -1.5 4.1 -1.5 5.6 0 1.5 -0.4 3 -1 3.3 -0.5 0.3 -1 1.5 -1 2.5 0 3.8 -6.9 7.9 -10.8 6.3z"/>
  <path d="M895.8 404.9 c-2 -1.1 -2.5 -7.6 -0.9 -10.7 0.5 -0.9 1.9 -6.2 3.1 -11.7 1.2 -5.5 2.9 -11.4 3.6 -13.2 0.8 -1.7 1.4 -4.2 1.4 -5.6 0 -1.4 0.5 -2.9 1 -3.2 0.6 -0.3 1 -1.5 1 -2.6 0 -2.8 5.3 -7.9 8.3 -7.9 1.3 0 3.2 0.9 4.2 2.1 1.7 1.8 1.7 2.4 0.6 5.2 -1.7 4.2 -2.9 8.8 -4.6 16.7 -1.9 8.8 -3.5 14.9 -5.1 18.7 -0.8 1.7 -1.4 4 -1.4 5.1 0 2.1 -6.2 8.2 -8.3 8.2 -0.7 0 -2 -0.5 -2.9 -1.1z"/>
  <path d="M1608.8 370.3 c-1.2 -1.4 -1.4 -3.1 -0.9 -7.5 0.8 -6.9 3.5 -10.9 8.1 -12.2 4.5 -1.3 6.4 1.2 5.6 7.4 -0.8 5.8 -3.2 10.3 -6.7 12.4 -3.4 2 -4.2 2 -6.1 -0.1z"/>
  <path d="M330.3 199.3 c-6.8 -0.4 -7.8 -1.7 -4.8 -5.7 1.4 -1.8 2.6 -1.9 23.2 -1.3 21.2 0.7 28.5 1.5 30.5 3.5 0.7 0.7 -0.2 1.4 -2.8 2 -4.1 1.1 -35.7 2 -46.1 1.5z"/>
  <path d="M657.1 248.9 c-2.1 -0.9 -4 -2.1 -4.2 -2.6 -0.2 -0.6 -1.6 -1.6 -3.1 -2.4 -1.5 -0.8 -6.5 -3.9 -11 -7 -4.6 -3.1 -10.3 -6.8 -12.8 -8.3 -2.5 -1.4 -5.2 -3 -6 -3.5 -6.9 -4.2 -17.2 -10.1 -17.6 -10.1 -0.4 0 -1.9 -1.1 -3.6 -2.5 -1.6 -1.4 -4.1 -2.8 -5.6 -3.2 -1.4 -0.3 -3.1 -1 -3.7 -1.5 -1.8 -1.6 -16.6 -9.7 -18.2 -10 -2.6 -0.5 -2.6 -2.5 -0.1 -3.1 17 -4.2 81.2 -2.7 87 2 0.7 0.6 3.3 1.3 5.8 1.5 4.6 0.5 9.5 2 14.2 4.4 1.4 0.8 3.4 1.4 4.3 1.4 1.7 0 17.8 8.2 20.5 10.5 0.8 0.7 2 1.4 2.7 1.6 4.1 1.3 17.3 16.8 17.3 20.3 0 0.8 0.6 1.9 1.3 2.3 1.6 0.9 3.8 6.8 3 7.7 -0.4 0.3 -12.1 0.6 -26.2 0.6 -21.4 0 -26.8 0.3 -32.9 1.9 -6.9 1.7 -7.4 1.7 -11.1 0z m14.9 -17.9 c1.9 -0.5 7.2 -1 11.8 -1 6 0 8.2 -0.3 8.2 -1.3 0 -1.7 -7.6 -6.5 -12.3 -7.8 -2 -0.5 -5.9 -1.9 -8.5 -3.1 -2.6 -1.1 -7.6 -2.7 -11.2 -3.5 -3.6 -0.8 -8.3 -1.9 -10.5 -2.4 -5.6 -1.5 -17.5 -2.3 -17.5 -1.3 0.1 1.3 2.6 4.4 3.5 4.4 0.4 0 5.2 3 10.7 6.8 12.6 8.6 17.8 11.3 20.3 10.6 1.1 -0.3 3.6 -0.9 5.5 -1.4z"/>
  <path d="M490.7 246.3 c-0.4 -0.3 -0.7 -1.5 -0.7 -2.5 0 -3 -4 -11.8 -7.7 -16.9 -2.3 -3.3 -2.9 -4.8 -2 -5.2 1.1 -0.4 3.6 0.6 17.2 6.8 1.7 0.7 6.2 2.5 10.2 4 4 1.4 8.3 3.5 9.7 4.6 1.3 1 2.9 1.9 3.5 1.9 1.4 0 15.1 6.8 15.1 7.5 0 0.8 -44.6 0.6 -45.3 -0.2z"/>
 </g>
<g>
</g>
</svg>